<?xml version="1.0" encoding="UTF-8"?>
<svg width="400px" height="400px" viewBox="0 0 400 400" version="1.1" xmlns="http://www.w3.org/2000/svg" xmlns:xlink="http://www.w3.org/1999/xlink">
    <!-- Generator: Sketch 51.3 (57544) - http://www.bohemiancoding.com/sketch -->
    <title>benefits4</title>
    <desc>Created with Sketch.</desc>
    <defs>
        <circle id="path-1" cx="190" cy="190" r="190"></circle>
    </defs>
    <g id="benefits4" stroke="none" stroke-width="1" fill="none" fill-rule="evenodd">
        <g id="Group-2-+-Group-3-Mask" transform="translate(10.000000, 10.000000)">
            <mask id="mask-2" fill="white">
                <use xlink:href="#path-1"></use>
            </mask>
            <use id="Mask" fill="#FFECC9" xlink:href="#path-1"></use>
        </g>
        <circle id="Oval-4" fill="#FFD045" cx="200" cy="200" r="126"></circle>
        <circle id="Mask" fill="#FFFFFF" cx="200.5" cy="200.5" r="90.5"></circle>
        <path d="M200.5,297.5 C146.928379,297.5 103.5,254.071621 103.5,200.5 C103.5,146.928379 146.928379,103.5 200.5,103.5 C254.071621,103.5 297.5,146.928379 297.5,200.5 C297.5,254.071621 254.071621,297.5 200.5,297.5 Z M200.5,284.5 C246.891919,284.5 284.5,246.891919 284.5,200.5 C284.5,154.108081 246.891919,116.5 200.5,116.5 C154.108081,116.5 116.5,154.108081 116.5,200.5 C116.5,246.891919 154.108081,284.5 200.5,284.5 Z" id="Mask" fill="#FFFFFF" fill-rule="nonzero"></path>
        <path d="M248.842358,123.979568 C274.1784,140.019378 291,168.295242 291,200.5 C291,214.1078 287.99667,227.014134 282.616705,238.592308 L200,207.5 L248.842358,123.979568 Z" id="Combined-Shape" fill="#FFAFA2"></path>
        <path d="M117.261985,236.079338 C112.587736,225.158106 110,213.131252 110,200.5 C110,168.406273 126.70581,140.214396 151.895896,124.145903 C152.995056,123.763878 154.113091,123.381911 155.25,123 L200,208.5 L117.261985,236.079338 Z" id="Combined-Shape" fill="#FFECC9"></path>
        <path d="M131.764938,141.626923 C148.362959,122.266628 172.998967,110 200.5,110 C229.689865,110 255.652019,123.819469 272.200768,145.272712 L199.652942,208.019367 L131.764938,141.626923 Z" id="Combined-Shape" fill="#FFE298"></path>
        <circle id="Oval" fill="#FFFFFF" cx="201" cy="201" r="36"></circle>
        <path d="M199.253195,135.485287 L192.658983,217.776361 C192.323034,221.968764 195.449308,225.639718 199.641711,225.975667 C199.844068,225.991883 200.046994,226 200.25,226 L200.25,226 C204.455842,226 207.86535,222.590492 207.86535,218.38465 C207.86535,218.181644 207.857232,217.978719 207.841017,217.776361 L201.246805,135.485287 C201.20269,134.934766 200.720643,134.524244 200.170123,134.568359 C199.680876,134.607563 199.2924,134.996039 199.253195,135.485287 Z" id="Path-57" fill="#FF8E75"></path>
    </g>
</svg>