<?xml version="1.0" encoding="UTF-8"?>
<svg width="400px" height="400px" viewBox="0 0 400 400" version="1.1" xmlns="http://www.w3.org/2000/svg" xmlns:xlink="http://www.w3.org/1999/xlink">
    <!-- Generator: Sketch 51.3 (57544) - http://www.bohemiancoding.com/sketch -->
    <title>benefits2</title>
    <desc>Created with Sketch.</desc>
    <defs>
        <circle id="path-1" cx="190" cy="190" r="190"></circle>
        <path d="M0,5.61290841 C42.1857123,-6.92244243 100.566755,-1.21367625 113.109527,51.2544714 C115.239816,60.1657647 115.974854,69.5442029 115.128269,78.6673917 C114.681519,83.481774 105.229303,89.4054516 109.331881,91.9641071 C115.326057,95.7024965 123.122786,88.6730184 130.158904,88.0415511 C152.971548,85.9941952 173.405453,92.060042 188.022852,110.967267 C199.644824,125.999986 202.651916,143.232895 191.435726,158.842438 C189.931542,160.935808 183.19897,163.794717 185.759262,164.094166 C198.397758,165.572353 211.20698,161.825017 223.905495,162.640072 C245.515245,164.027096 295.270116,203.647208 264.05548,223.15237 C233.869367,242.014836 170.602182,243.7215 134.186395,244.738921 C32.8227424,247.57092 60.3119423,251.328842 3.43785804,239.871953 L0,5.61290841 Z" id="path-3"></path>
        <path d="M237.244545,198.752569 C236.206984,199.427843 235.152396,200.085441 234.080891,200.724739 C202.209602,219.740266 155.051446,214.489962 122.7691,214.847719 C100.145547,215.098436 76.0637323,216.511689 52.9451977,213.163788 C52.1607479,212.017238 51.5537441,210.761211 51.181062,209.499548 C46.0548193,192.145375 58.3313176,178.294462 74.1905651,174.949724 C81.7219529,173.361343 94.1529899,180.372278 97.2107878,173.245496 C100.440422,165.718218 86.3802221,160.50064 83.7148808,152.751488 C81.6780248,146.82958 82.490071,140.095337 83.6934417,133.945477 C87.1413464,116.324862 102.986657,118.939511 116.811476,121.063683 L124.936891,124.926598 C127.366538,125.299911 128.311303,132.052123 130.044754,130.293561 C133.41036,126.8792 131.806113,120.777178 133.475008,116.264796 C135.224082,111.535624 137.343122,106.863911 140.233681,102.744594 C165.841475,66.251093 171.47204,68.4792928 215.474167,68 L205.585387,84.7717596 C237.609297,102.958944 239.80866,147.604742 238.826696,180.684583 C238.699791,184.959672 238.639633,192.234425 237.244545,198.752569 Z" id="path-5"></path>
    </defs>
    <g id="benefits2" stroke="none" stroke-width="1" fill="none" fill-rule="evenodd">
        <g id="Group-2-+-Group-3-Mask" transform="translate(10.000000, 10.000000)">
            <mask id="mask-2" fill="white">
                <use xlink:href="#path-1"></use>
            </mask>
            <use id="Mask" fill="#FFECC9" xlink:href="#path-1"></use>
            <g id="Group-2" mask="url(#mask-2)">
                <g transform="translate(69.000000, 18.000000)">
                    <circle id="Oval-2" fill="#FFFFFF" cx="133" cy="130" r="65"></circle>
                    <g id="Group" stroke-width="1" fill="none">
                        <polygon id="Path-2" fill="#FFD045" points="163.947368 220.183824 196.346491 247.852941 188.149123 206.544118"></polygon>
                        <polygon id="Path-2" fill="#FFD045" transform="translate(220.935328, 195.817246) rotate(-29.000000) translate(-220.935328, -195.817246) " points="204.735767 188.802541 237.13489 216.471658 228.937521 175.162835"></polygon>
                        <polygon id="Path-2" fill="#FFD045" transform="translate(240.769962, 147.647658) rotate(-59.000000) translate(-240.769962, -147.647658) " points="224.5704 140.632952 256.969523 168.302069 248.772155 126.993246"></polygon>
                        <polygon id="Path-2" fill="#FFD045" transform="translate(236.880336, 99.484154) rotate(-81.000000) translate(-236.880336, -99.484154) " points="220.680775 92.4694479 253.079897 120.138566 244.882529 78.829742"></polygon>
                        <polygon id="Path-2" fill="#FFD045" transform="translate(214.062886, 58.651180) rotate(-106.000000) translate(-214.062886, -58.651180) " points="197.863325 51.6364738 230.262447 79.3055914 222.065079 37.9967679"></polygon>
                        <polygon id="Path-2" fill="#FFD045" transform="translate(170.311818, 32.406225) rotate(-133.000000) translate(-170.311818, -32.406225) " points="154.112257 25.391519 186.511379 53.0606366 178.314011 11.7518131"></polygon>
                        <polygon id="Path-2" fill="#FFD045" transform="translate(121.363875, 25.331700) rotate(-157.000000) translate(-121.363875, -25.331700) " points="105.164313 18.3169945 137.563436 45.9861121 129.366068 4.67728861"></polygon>
                        <polygon id="Path-2" fill="#FFD045" transform="translate(72.590170, 41.470661) rotate(175.000000) translate(-72.590170, -41.470661) " points="56.3906086 34.4559556 88.7897314 62.1250733 80.592363 20.8162497"></polygon>
                        <polygon id="Path-2" fill="#FFD045" transform="translate(40.593223, 73.449599) rotate(151.000000) translate(-40.593223, -73.449599) " points="24.3936617 66.4348935 56.7927845 94.1040112 48.5954161 52.7951876"></polygon>
                        <polygon id="Path-2" fill="#FFD045" transform="translate(26.173830, 116.004022) rotate(123.000000) translate(-26.173830, -116.004022) " points="9.97426906 108.989316 42.3733919 136.658434 34.1760234 95.34961"></polygon>
                        <polygon id="Path-2" fill="#FFD045" transform="translate(29.432929, 159.028400) rotate(100.000000) translate(-29.432929, -159.028400) " points="13.2333672 152.013694 45.63249 179.682812 37.4351216 138.373988"></polygon>
                        <polygon id="Path-2" fill="#FFD045" transform="translate(87.105040, 229.163537) rotate(56.000000) translate(-87.105040, -229.163537) " points="70.905479 222.148831 103.304602 249.817949 95.1072334 208.509125"></polygon>
                        <polygon id="Path-2" fill="#FFD045" transform="translate(132.716030, 238.684894) rotate(29.000000) translate(-132.716030, -238.684894) " points="116.516469 231.670188 148.915592 259.339305 140.718223 218.030482"></polygon>
                        <polygon id="Path-2" fill="#FFD045" transform="translate(49.756243, 200.733265) rotate(76.000000) translate(-49.756243, -200.733265) " points="33.5566819 193.718559 65.9558047 221.387677 57.7584362 180.078853"></polygon>
                    </g>
                </g>
            </g>
            <g id="Path-3" mask="url(#mask-2)">
                <g transform="translate(-31.000000, 151.000000)">
                    <mask id="mask-4" fill="white">
                        <use xlink:href="#path-3"></use>
                    </mask>
                    <use id="Mask" stroke="none" fill="#FFAFA2" fill-rule="evenodd" xlink:href="#path-3"></use>
                    <path d="M49.1737766,29.722408 C83.4008366,30.5833688 101.62598,31.2054793 97.5767003,71.0696731 C96.7280664,79.4242713 93.9974292,87.4924741 92.7751098,95.8006283 C91.9825351,101.187791 86.4646456,110.121547 91.5417518,112.08946 C100.570047,115.588876 110.406581,107.521148 120.019564,106.360725 C146.283569,103.190287 184.2541,113.094533 174.03214,149.171008 C170.553282,161.448981 153.192688,173.228382 159.223338,184.474819 C164.092911,193.555988 179.187958,179.062535 189.423598,177.874227 C202.124514,176.399711 246.447852,179.47046 248.369606,201.359065 C253.159652,255.917243 159.445265,248.537275 125.186909,248.405295 C77.752246,248.222552 43.6751252,199.595456 36.9124964,156.796563 C32.6369116,129.737515 32.0564318,102.216574 30.3331692,74.8760712 C28.8911311,51.9973482 28.5109454,57.249904 34.8200407,40.4994055" id="Path-43" stroke="none" fill="#FF8E75" fill-rule="evenodd" mask="url(#mask-4)"></path>
                </g>
            </g>
            <g id="Path-4" mask="url(#mask-2)">
                <g transform="translate(188.000000, 43.000000)">
                    <path d="M234.903457,24.0015963 C199.302955,24.0015963 138.171371,23.1226591 119.914323,62.6135913 C115.078899,73.0728635 118.296221,97.1122457 117.556206,102.727224 C117.375367,104.099359 115.241561,100.87846 113.860567,100.848831 C105.800955,100.675917 97.3270958,99.4850556 89.7100024,102.129798 C82.4196395,104.661096 76.6879681,110.552306 70.9686053,115.741414 C67.5042452,118.884586 63.3162418,122.28515 62.4278138,126.882595 C58.5987999,146.697012 58.4425433,156.78542 71.4198169,168.77774 C74.2811109,171.421866 70.7860276,165.864623 46.5655766,174.003869 C13.0065361,185.281333 4.31590329,223.199736 46.2647688,228.880911 C77.6624863,233.133134 109.946007,224.332514 140.003984,218.143396 C171.624949,211.63245 218.918483,207.788091 246.575872,183.040604 C289.864477,144.306502 289.590334,73.6325608 247.059313,35.0728081 L234.903457,24.0015963 Z" id="Mask" stroke="none" fill="#FFAFA2" fill-rule="evenodd" transform="translate(148.500000, 127.000000) rotate(11.000000) translate(-148.500000, -127.000000) "></path>
                    <mask id="mask-6" fill="white">
                        <use xlink:href="#path-5"></use>
                    </mask>
                    <use id="Combined-Shape" stroke="none" fill="#FF9680" fill-rule="evenodd" xlink:href="#path-5"></use>
                </g>
            </g>
        </g>
    </g>
</svg>