<?xml version="1.0" encoding="UTF-8"?>
<svg width="400px" height="400px" viewBox="0 0 400 400" version="1.1" xmlns="http://www.w3.org/2000/svg" xmlns:xlink="http://www.w3.org/1999/xlink">
    <!-- Generator: Sketch 51.3 (57544) - http://www.bohemiancoding.com/sketch -->
    <title>benefits3</title>
    <desc>Created with Sketch.</desc>
    <defs>
        <circle id="path-1" cx="190" cy="190" r="190"></circle>
        <path d="M76.8317557,123 C62.4243846,119.767389 49.4905033,114.880989 41.3483833,108.728934 C23.642954,95.3509977 10.2519987,63.4235999 1.17551731,12.9467409 C0.100361589,6.96750365 4.07590606,1.24878883 10.0551435,0.173634038 C10.6976193,0.0581074369 11.3491036,1.78781845e-07 12.0018835,1.78781844e-07 L196.751187,-5.5067062e-14 C202.826319,-5.61830457e-14 207.751187,4.92486783 207.751187,11.0000002 C207.751187,11.21305 207.744998,11.4260087 207.732634,11.6386074 C221.303904,8.96691595 232.299144,9.49871856 240.825242,13.6244134 C252.346251,19.1993164 258,30.5450088 258,45.9973609 C258,61.6148183 250.345032,73.991351 235.92298,82.1295093 C224.05615,88.8257916 207.54701,92.7500597 186.289574,94.1347929 C182.223949,100.923455 177.703817,105.788169 172.729179,108.728934 C165.043123,113.27256 154.646905,119.0742 142.357568,123 L195,123 C202.179702,123 208,128.820298 208,136 C208,143.179702 202.179702,149 195,149 L13,149 C5.82029825,149 8.79259876e-16,143.179702 0,136 C-8.79259876e-16,128.820298 5.82029825,123 13,123 L76.8317557,123 Z M194.775741,75.3109957 C208.762003,73.6962488 219.548316,70.7014658 227.07702,66.4531257 C235.988301,61.4246173 240,54.9385122 240,45.9973609 C240,36.8911042 237.59046,32.0557465 232.984893,29.827158 C227.586662,27.215007 218.259817,27.2964641 205.17195,30.6836475 C202.395412,48.4754316 198.930009,63.3512143 194.775741,75.3109957 Z" id="path-3"></path>
    </defs>
    <g id="benefits3" stroke="none" stroke-width="1" fill="none" fill-rule="evenodd">
        <g id="Group-2-+-Group-3-Mask" transform="translate(10.000000, 10.000000)">
            <mask id="mask-2" fill="white">
                <use xlink:href="#path-1"></use>
            </mask>
            <use id="Mask" fill="#FFECC9" xlink:href="#path-1"></use>
        </g>
        <g id="Group" transform="translate(96.000000, 200.000000)">
            <g id="Path-51">
                <mask id="mask-4" fill="white">
                    <use xlink:href="#path-3"></use>
                </mask>
                <use id="Mask" fill="#FFE298" xlink:href="#path-3"></use>
                <path d="M201.265966,-0.186262436 C199.766232,25.8803767 217.915238,7.63824489 207.585381,-4.26744682 C205.382134,-6.80680268 198.447138,-2.1944184 200.316152,1.17963229" id="Path-4" fill="#FFD045" mask="url(#mask-4)"></path>
                <path d="M196.561992,73.8274409 C195.264369,76.0845615 190.577039,85.1420812 182.5,101 C191.773845,101.902712 197.940512,101.902712 201,101 C206.184047,99.4704296 221.514411,89.161753 227,87 C231.444055,85.2486932 260.488578,61.3193571 262.5,55.5 C262.796616,54.6418438 258.479839,29.8227458 256,31.5 C253.020031,33.5155199 257.559191,43.6181709 254.5,54 C252.750296,59.9378855 243.328611,68.312935 241.706273,69.3871106 C235,73.8274409 240.825736,69.8327712 240.431356,70 C235.839544,71.9470686 239.733006,62.9986316 240.431356,61.7290066 C244.860839,53.6760561 242.337179,25.3104732 230,31.5 C214.663857,39.1940979 208.2386,59.7088906 197.551329,71.8488628 L196.561992,73.8274409 Z" fill="#FFD045" mask="url(#mask-4)"></path>
                <path d="M205.219407,24.4595418 C212.800162,23.4910166 220.331562,21.966324 228.024713,22.7857277 C254.444315,25.599701 245.408602,82.146294 222.957233,66.8030912 C216.398829,62.3210965 207.402239,59.4556888 204.101339,52.230386 C200.732485,44.8563393 204.833564,36.0326451 205.199677,27.9337747 L205.219407,24.4595418 Z" id="Path-3" fill="#FFD045" mask="url(#mask-4)"></path>
                <path d="M134,2 L134,19.7573882 C134,24.3330671 131.911496,28.6585179 128.328232,31.5040509 L117,40.5 L117,96.5 C117,101.470563 121.029437,105.5 126,105.5 L156,105.5 L156,45.5 L145,33.5 L140,0 L134,2 Z" id="Path-54" fill="#FFD045" mask="url(#mask-4)"></path>
                <path d="M166,101.371682 C175.109444,92.1417051 184.567864,79.7848176 189.5,66.8253681 C192.307144,59.4494478 196.986878,44.1076916 199,30 C200.64445,18.4759154 199.574497,7.84092293 202,2.5 C202.784263,0.773062993 205.01321,12.1632022 205.827896,10.5 C206.264855,9.60793579 205.656933,35.7737538 205.827896,36.752265 C206.174409,38.7355465 206.698787,40.8438425 206.586915,42.8467586 C206.54686,43.5638893 206.425241,44.2675107 206.184691,44.9470481 C202.532093,55.2653862 199.04605,67.7818927 194.753495,77.8575015 C191.405935,85.7149903 188.279048,90.0835028 184.753495,97.8575015 C183.803284,99.9527576 181.062419,102.67764 179.321455,104.18165 C177.465012,105.785423 175.56522,107.837211 173.134262,108.167235 C170.884416,108.472672 168.853815,106.651266 166.713591,105.893281 L166,101.371682 Z" id="Path-52" fill="#FFD045" mask="url(#mask-4)"></path>
                <rect id="Rectangle-3" fill="#FFD045" mask="url(#mask-4)" x="7" y="0" width="201" height="4"></rect>
                <path d="M-9,125 L4.5,118.5 L4.5,118.5 C8.77041934,127.650899 17.9546571,133.5 28.0529454,133.5 L179.072507,133.5 C190.11728,133.5 199.665877,125.795318 202,115 L227,158 L-3,163.5 L-9,125 Z" id="Path-53" fill="#FFD045" mask="url(#mask-4)"></path>
                <path d="M53.5,-1.68422812 C43.9430704,9.1484632 54.8795798,51.513997 64.5,69.5 C76,91 109.529442,102.355547 137.5,93.5 C142.523899,91.9094212 165.833722,83.904641 177.5,53.5 C180.870173,44.7166582 186.430771,27.0283356 181.5,6 C180.978681,3.77672303 177.978681,1.21531366 172.5,-1.68422812 C194.260749,-6.23610514 204.927415,-1.17469576 204.5,13.5 C203.69636,41.0918309 181.865054,98.3739225 183.617506,99.073225 C185.100479,99.6649937 186.163367,101.412081 186.366742,102.995759 C186.571067,104.586832 185.749133,106.296312 184.701044,107.510713 C177.141096,116.270279 170.393372,113.908328 159.112887,119.4822 C157.034064,120.509381 168.236906,118.0741 166.035987,118.803867 C160.596387,120.607497 155.396783,123.737844 149.324086,123.411077 C116,121.617936 85.8591334,121.617936 53.5,118.803867 C42.3549725,117.834655 25.7541156,123.585029 14.8869845,120.928627 C12.081457,120.242833 8.61529311,119.623757 7.07525568,117.180484 C-7.9946012,93.272122 -38.4977505,8.13202844 6.59567811,-1.68422812 L53.5,-1.68422812 Z" id="Path-2" fill="#FFD045" mask="url(#mask-4)"></path>
                <path d="M176,123 C176,118.581722 146.003078,115 109,115 C71.9969218,115 42,118.581722 42,123 C42,127.418278 176,127.418278 176,123 Z" id="Oval" fill="#FFD045" mask="url(#mask-4)"></path>
            </g>
        </g>
        <path d="M240.25,200.5 L240.25,236.5" id="Line" stroke="#FF8E75" stroke-width="13" stroke-linecap="round"></path>
        <path d="M220.820925,240.900707 L235.320925,230.11001 C237.80125,228.264186 241.19875,228.264186 243.679075,230.11001 L258.179075,240.900707 C259.954012,242.22159 261,244.303845 261,246.51634 L261,293 C261,296.313708 258.313708,299 255,299 L224,299 C220.686292,299 218,296.313708 218,293 L218,246.51634 C218,244.303845 219.045988,242.22159 220.820925,240.900707 Z" id="Rectangle-2" fill="#FFFFFF"></path>
        <path d="M149.710482,42 C165.087807,54.8277719 175.623029,77.2501909 164.71893,95.9605309 C158.21494,107.120728 141.592483,113.844946 138.901213,126.536128 C135.005549,144.906852 144.58055,149.077171 151.551865,164.261648" id="Path-50" stroke="#FFFFFF" stroke-width="13" stroke-linecap="round" stroke-linejoin="round"></path>
        <path d="M194.710482,43 C210.087807,55.8277719 220.623029,78.2501909 209.71893,96.9605309 C203.21494,108.120728 186.592483,114.844946 183.901213,127.536128 C180.005549,145.906852 189.58055,150.077171 196.551865,165.261648" id="Path-50" stroke="#FFFFFF" stroke-width="13" stroke-linecap="round" stroke-linejoin="round"></path>
        <path d="M241.710482,43 C257.087807,55.8277719 267.623029,78.2501909 256.71893,96.9605309 C250.21494,108.120728 233.592483,114.844946 230.901213,127.536128 C227.005549,145.906852 236.58055,150.077171 243.551865,165.261648" id="Path-50" stroke="#FFFFFF" stroke-width="13" stroke-linecap="round" stroke-linejoin="round"></path>
    </g>
</svg>