<?xml version="1.0" encoding="UTF-8"?>
<svg width="400px" height="400px" viewBox="0 0 400 400" version="1.1" xmlns="http://www.w3.org/2000/svg" xmlns:xlink="http://www.w3.org/1999/xlink">
    <!-- Generator: Sketch 51.3 (57544) - http://www.bohemiancoding.com/sketch -->
    <title>benefits6</title>
    <desc>Created with Sketch.</desc>
    <defs>
        <circle id="path-1" cx="190" cy="190" r="190"></circle>
    </defs>
    <g id="benefits6" stroke="none" stroke-width="1" fill="none" fill-rule="evenodd">
        <g id="Group-2-+-Group-3-Mask" transform="translate(10.000000, 10.000000)">
            <mask id="mask-2" fill="white">
                <use xlink:href="#path-1"></use>
            </mask>
            <use id="Mask" fill="#FFECC9" xlink:href="#path-1"></use>
            <path d="M190.5,305 C127.263396,305 76,253.736604 76,190.5 C76,127.263396 127.263396,76 190.5,76 C253.736604,76 305,127.263396 305,190.5 C305,253.736604 253.736604,305 190.5,305 Z M190.5,285 C242.690909,285 285,242.690909 285,190.5 C285,138.309091 242.690909,96 190.5,96 C138.309091,96 96,138.309091 96,190.5 C96,242.690909 138.309091,285 190.5,285 Z" id="Oval" fill="#FFFFFF" fill-rule="nonzero" mask="url(#mask-2)"></path>
            <circle id="Oval-3" fill="#FFD045" mask="url(#mask-2)" cx="309" cy="287" r="18"></circle>
            <circle id="Oval-3" fill="#FFD045" mask="url(#mask-2)" cx="314" cy="102" r="18"></circle>
            <circle id="Oval-3" fill="#FFD045" mask="url(#mask-2)" cx="100" cy="46" r="18"></circle>
            <circle id="Oval-3" fill="#FFD045" mask="url(#mask-2)" cx="46" cy="152" r="18"></circle>
            <circle id="Oval-3" fill="#FFD045" mask="url(#mask-2)" cx="10" cy="197" r="18"></circle>
            <path d="M244.516892,342.854255 C237.969968,334.30317 239.594661,322.063816 248.145745,315.516892 C256.69683,308.969968 268.936184,310.594661 275.483108,319.145745 L324.483108,383.145745 C331.030032,391.69683 329.405339,403.936184 320.854255,410.483108 C312.30317,417.030032 300.063816,415.405339 293.516892,406.854255 L244.516892,342.854255 Z" id="Path-39" fill="#FFDE8A" fill-rule="nonzero" mask="url(#mask-2)"></path>
            <path d="M268.647812,63.3318463 C258.523413,67.0033318 247.339639,61.7722116 243.668154,51.6478124 C239.996668,41.5234132 245.227788,30.3396391 255.352188,26.6681537 L300.852188,10.1681537 C310.976587,6.49666825 322.160361,11.7277884 325.831846,21.8521876 C329.503332,31.9765868 324.272212,43.1603609 314.147812,46.8318463 L268.647812,63.3318463 Z" id="Path-39" fill="#FFDE8A" fill-rule="nonzero" mask="url(#mask-2)"></path>
            <path d="M94.8456396,340.80645 C84.4591239,337.959776 78.3468752,327.232155 81.1935498,316.84564 C84.0402245,306.459124 94.7678448,300.346875 105.15436,303.19355 L172.65436,321.69355 C183.040876,324.540224 189.153125,335.267845 186.30645,345.65436 C183.459776,356.040876 172.732155,362.153125 162.34564,359.30645 L94.8456396,340.80645 Z" id="Path-39" fill="#FFDE8A" fill-rule="nonzero" mask="url(#mask-2)"></path>
            <path d="M-11.1543604,93.8064502 C-21.5408761,90.9597755 -27.6531248,80.2321552 -24.8064502,69.8456396 C-21.9597755,59.4591239 -11.2321552,53.3468752 -0.845639578,56.1935498 L66.6543604,74.6935498 C77.0408761,77.5402245 83.1531248,88.2678448 80.3064502,98.6543604 C77.4597755,109.040876 66.7321552,115.153125 56.3456396,112.30645 L-11.1543604,93.8064502 Z" id="Path-39" fill="#FFDE8A" fill-rule="nonzero" mask="url(#mask-2)"></path>
            <path d="M234.81549,147.168891 C238.035923,143.75328 243.415499,143.595057 246.831109,146.81549 C250.24672,150.035923 250.404943,155.415499 247.18451,158.831109 L176.394187,233.911755 C172.8944,237.623651 166.936086,237.43801 163.674161,233.515443 L139.464484,204.40254 C136.462928,200.793074 136.955736,195.433782 140.565202,192.432226 C144.174668,189.43067 149.53396,189.923478 152.535516,193.532944 L170.608913,215.266775 L234.81549,147.168891 Z" id="Path-47" fill="#FF8E75" fill-rule="nonzero" mask="url(#mask-2)"></path>
            <path d="M216.719656,14.550547 C218.660591,12.9065 220.130307,11.2857707 223.380837,7.37087811 C227.282607,2.67164 229.163184,0.615040185 231.99878,-1.70632468 C236.453235,-5.35297104 241.781334,-8.23022082 247.605147,-10.2653393 C251.464519,-11.613988 255.660274,-11.8889754 260.384405,-11.4161456 C262.666177,-11.1877673 264.142462,-10.6582217 267.096843,-9.32403251 C268.130308,-8.85732261 268.560545,-8.6731655 269.027705,-8.50559463 C272.14682,-7.38676346 273.768371,-3.95122897 272.64954,-0.832113575 C271.530709,2.28700182 268.095174,3.90855256 264.976059,2.78972139 C264.107104,2.47802596 263.483708,2.21118998 262.157947,1.61248035 C260.393874,0.815830453 259.732376,0.578550003 259.189318,0.524196353 C256.059271,0.210915627 253.526957,0.376882051 251.563778,1.06291035 C247.009225,2.65448878 242.914883,4.86549215 239.600245,7.57902525 C237.558625,9.25040013 236.024213,10.9284345 232.633129,15.0126087 C228.914881,19.4908146 227.130842,21.4581641 224.475682,23.7071872 C217.541458,29.5807411 206.832379,31.9502431 197.144672,30.32957 C193.412531,34.558967 188.90871,38.3230729 183.954496,41.2943391 C170.423775,49.4093249 156.066243,50.1122062 146.918985,40.6914151 C139.575743,33.1285864 137.317178,23.1708131 138.169791,10.0724063 C138.399094,6.54969254 138.784227,3.31102984 139.528634,-1.94320116 C140.383919,-7.98003711 140.455797,-8.51020568 140.669893,-10.608919 C141.00619,-13.9055185 143.951234,-16.3053182 147.247834,-15.9690215 C150.544433,-15.6327248 152.944233,-12.6876806 152.607936,-9.39108104 C152.370219,-7.06082246 152.296799,-6.51927478 151.409982,-0.259878976 C150.705395,4.71328716 150.348874,7.71134823 150.144449,10.8518713 C149.490594,20.8968203 151.034527,27.7038562 155.528332,32.3320405 C160.047791,36.9866464 168.495505,36.5730837 177.782475,31.0032675 C180.390026,29.4394015 182.831448,27.593884 185.025992,25.5680729 C178.064356,20.6584822 174.694555,12.6688851 176.918419,2.93270352 C181.272854,-16.131228 210.293653,-10.0341826 207.665443,9.12373889 C207.221399,12.3605211 206.226274,15.6100739 204.773371,18.7772745 C209.376779,18.4990091 213.814637,17.0112097 216.719656,14.550547 Z M195.776794,7.49277531 C196.364535,3.20853635 189.494161,1.76512406 188.617125,5.60483145 C187.508483,10.458519 188.935011,13.9776924 192.603959,16.2183773 C194.277654,13.3024973 195.387844,10.3279673 195.776794,7.49277531 Z" id="Path-44" fill="#FFAFA2" fill-rule="nonzero" mask="url(#mask-2)"></path>
            <path d="M1,292.765126 C-2.3137085,292.765126 -5,290.078835 -5,286.765126 C-5,283.451418 -2.3137085,280.765126 1,280.765126 C2.0414858,280.765126 2.78537467,280.771962 4.95953308,280.797356 C9.39771842,280.849196 11.6337278,280.843769 14.2338938,280.735675 C20.1814237,280.488425 24.5630917,279.685336 27.4271613,278.222885 C40.5673647,271.513237 51.8012886,251.004567 47.4834104,239.341467 C46.3182368,236.194195 44.9982564,233.695585 41.6850138,228.035038 C39.8957847,224.978209 39.1067603,223.596001 38.1593635,221.80266 C36.6114969,218.872682 37.7319199,215.242671 40.6618982,213.694805 C43.5918765,212.146938 47.2218871,213.267361 48.7697537,216.19734 C49.6085837,217.785173 50.3402573,219.066914 52.0413858,221.973226 C55.7088584,228.238962 57.2468411,231.150231 58.7369575,235.175212 C62.2298671,244.609975 60.2874165,255.887675 54.3665375,266.696841 C49.0784895,276.350711 41.0031125,284.764618 32.8843304,288.910228 C28.1336852,291.336002 22.2612303,292.412329 14.7323253,292.725319 C11.8534305,292.845 9.4647796,292.850797 4.81937926,292.796538 C2.69654593,292.771743 1.97649039,292.765126 1,292.765126 Z" id="Path-46" fill="#FFAFA2" fill-rule="nonzero" mask="url(#mask-2)"></path>
            <path d="M360.687362,185.234674 C362.009702,190.529985 363.670659,194.826612 367.727291,204.129234 C371.495318,212.769595 373.04178,216.615702 374.575336,221.65359 C378.624107,234.95421 373.91226,246.749682 363.144646,253.964711 C353.811528,260.218531 340.990021,262.180875 330.276507,258.968029 C327.102452,258.01617 325.301005,254.671456 326.252864,251.4974 C327.204723,248.323345 330.549437,246.521898 333.723493,247.473757 C340.992964,249.653779 350.101325,248.259735 356.46479,243.995783 C362.986258,239.625959 365.549369,233.209557 363.095431,225.148127 C361.741756,220.701167 360.310735,217.142164 356.833013,209.167497 C352.40713,199.018122 350.581575,194.295705 349.044883,188.142024 C348.165658,184.621172 347.617832,181.254741 347.453559,178.081634 C339.653484,173.386344 336.326813,164.46247 337.195912,153.70137 C338.023441,143.454993 342.722111,132.059574 348.681244,125.383552 C352.64195,120.94637 359.961777,119.395742 370.751407,119.059011 C375.237636,118.919001 379.884083,119.029791 384.90358,119.309637 C386.278376,119.386285 389.59996,119.600668 389.654883,119.600668 C392.968591,119.600668 395.654883,122.286959 395.654883,125.600668 C395.654883,128.914376 392.968591,131.600668 389.654883,131.600668 C389.14744,131.600668 385.075782,131.337873 384.235594,131.291031 C379.533693,131.028891 375.208347,130.925757 371.12573,131.053171 C363.776602,131.282528 358.503914,132.399492 357.633562,133.374548 C353.455654,138.05506 349.778355,146.973406 349.156967,154.667381 C348.858603,158.361689 349.212211,161.37479 350.233724,163.698664 C350.756764,162.733172 351.356399,161.809779 352.036029,160.931024 C362.412928,147.51379 375.633295,147.230688 382.300332,158.228212 C388.345631,168.200156 384.821806,181.575006 372.141923,182.774162 C368.254075,183.141842 364.328989,182.894206 360.009814,182.105011 C360.192491,183.112939 360.418284,184.157154 360.687362,185.234674 Z M371.012106,170.827468 C372.328403,170.702983 372.742322,170.341772 372.986454,169.415156 C373.34734,168.045394 373.001055,166.036496 372.038732,164.44911 C371.184325,163.039734 370.17638,162.392208 369.184095,162.413457 C367.383956,162.452005 364.729507,164.133336 361.528355,168.272396 C361.142142,168.771766 360.808897,169.340027 360.528857,169.97297 C364.535323,170.826982 367.908634,171.120968 371.012106,170.827468 Z" id="Path-45" fill="#FFAFA2" fill-rule="nonzero" mask="url(#mask-2)"></path>
        </g>
    </g>
</svg>