<?xml version="1.0" encoding="UTF-8"?>
<svg width="400px" height="400px" viewBox="0 0 400 400" version="1.1" xmlns="http://www.w3.org/2000/svg" xmlns:xlink="http://www.w3.org/1999/xlink">
    <!-- Generator: Sketch 51.3 (57544) - http://www.bohemiancoding.com/sketch -->
    <title>benefits1</title>
    <desc>Created with Sketch.</desc>
    <defs>
        <circle id="path-1" cx="190" cy="190" r="190"></circle>
    </defs>
    <g id="benefits1" stroke="none" stroke-width="1" fill="none" fill-rule="evenodd">
        <g id="Group-2-+-Group-3-Mask" transform="translate(10.000000, 10.000000)">
            <mask id="mask-2" fill="white">
                <use xlink:href="#path-1"></use>
            </mask>
            <use id="Mask" fill="#FFECC9" xlink:href="#path-1"></use>
            <g id="oxytocin" mask="url(#mask-2)">
                <g transform="translate(-1538.000000, -154.000000)">
                    <g id="Group" stroke-width="1" fill="none" transform="translate(38.000000, 34.000000)" stroke-linecap="round" stroke-linejoin="round">
                        <path d="M835.410141,919.545505 L812.891204,804.925913 L704.1895,792.150825 L653.853053,906.776512 L743.887035,972.090093 L835.410141,919.545505 Z M852.310516,919.957477 L948.409301,975.129021 L940.185338,989.42378 L843.501538,933.916372 L746.817738,989.42378 L745.653002,987.399255 L745.653002,1102.00038 L844.666274,1158.84517 L836.442312,1173.13993 L737.400716,1116.27888 L638.359119,1173.13993 L631.299893,1160.86969 L624.240667,1173.13993 L525.199071,1116.27888 L430.887229,1170.42451 L430.887229,1287.29231 L414.382656,1287.29231 L414.382656,1171.77816 L318.891916,1116.9557 L221.029218,1173.13993 L213.969992,1160.86969 L206.910766,1173.13993 L107.869169,1116.27888 L8.82757325,1173.13993 L0.603610961,1158.84517 L99.6168833,1102.00038 L99.6168833,982.276401 L116.121456,982.276401 L116.121456,1102.00038 L213.969992,1158.17648 L315.369384,1099.96179 L318.891916,1106.0846 L322.414448,1099.96179 L421.456045,1156.82284 L518.125683,1101.32356 L518.125683,988.062009 L421.456045,932.562731 L322.414448,989.42378 L314.190486,975.129021 L414.382656,917.607412 L414.382656,800.915589 L430.887229,800.915589 L430.887229,918.961053 L528.721603,975.129021 L524.609622,982.276401 L534.630255,982.276401 L534.630255,1102.6772 L631.299893,1158.17648 L729.148429,1102.00038 L729.148429,982.276401 L729.840572,982.276401 L640.008187,917.109065 L646.01335,908.848291 L636.710655,904.771651 L691.529413,779.938885 L699.08653,783.250575 L700.050737,775.063366 L820.298336,789.195377 L818.880349,801.235687 L828.610828,799.32796 L852.310516,919.957477 Z M1155.82144,740.854541 L1160.61095,749.179589 L1062.77657,805.347556 L1062.77657,917.607412 L1162.96874,975.129021 L1154.74478,989.42378 L1055.70318,932.562731 L961.391341,986.708368 L961.391341,1103.57616 L944.886768,1103.57616 L944.886768,982.276401 L952.549606,982.276401 L948.437624,975.129021 L1046.272,918.961053 L1046.272,800.915589 L1053.93484,800.915589 L1049.82285,793.76821 L1150.01503,736.246601 L1150.01503,619.554778 L1160.38797,619.554778 L1153.56588,607.696728 L1252.57915,550.851939 L1252.57915,438.193966 L1253.11176,438.193966 L1162.99707,386.457966 L1171.22103,372.163207 L1265.54703,426.316974 L1359.87304,372.163207 L1364.57447,380.335157 L1365.84144,378.132919 L1364.57447,378.132919 L1364.57447,256.833155 L1381.07904,256.833155 L1381.07904,378.132919 L1379.67405,378.132919 L1470.67529,430.377897 L1570.88162,372.848158 L1570.88162,256.833155 L1587.38619,256.833155 L1587.38619,375.555439 L1684.04167,431.046587 L1675.81771,445.341346 L1576.77611,388.480297 L1477.73451,445.341346 L1470.67529,433.071112 L1463.61606,445.341346 L1364.57447,388.480297 L1269.08373,443.302754 L1269.08373,559.49373 L1262.27457,559.49373 L1264.35397,563.108107 L1166.03415,619.554778 L1166.5196,619.554778 L1166.5196,740.854541 L1155.82144,740.854541 Z M1054.43621,922.215353 L1055.70318,924.417591 L1056.97016,922.215353 L1054.43621,922.215353 Z M1904.50976,1173.1318 L1904.50976,1287.29231 L1888.00519,1287.29231 L1888.00519,1171.77816 L1787.81302,1114.25655 L1793.95758,1103.57616 L1784.26216,1103.57616 L1784.26216,988.062009 L1684.06999,930.5404 L1688.8595,922.215353 L1679.25216,922.215353 L1684.04167,930.5404 L1586.20729,986.708368 L1586.20729,1103.57616 L1569.70272,1103.57616 L1569.70272,986.708368 L1475.39088,932.562731 L1376.34928,989.42378 L1372.82675,983.300971 L1372.82675,1103.57616 L1371.38362,1103.57616 L1377.52818,1114.25655 L1274.96405,1173.13993 L1272.62042,1169.06626 L1272.62042,1287.29231 L1256.11585,1287.29231 L1256.11585,1171.77816 L1155.92368,1114.25655 L1164.14764,1099.96179 L1266.71177,1158.84517 L1262.59979,1165.99255 L1270.85207,1165.99255 L1266.74009,1158.84517 L1363.00863,1103.57616 L1356.32218,1103.57616 L1356.32218,987.385188 L1265.54703,935.270013 L1171.22103,989.42378 L1162.99707,975.129021 L1256.11585,921.668335 L1256.11585,800.915589 L1272.62042,800.915589 L1272.62042,920.314694 L1368.097,975.129021 L1363.98502,982.276401 L1372.2373,982.276401 L1368.12532,975.129021 L1470.68945,916.245641 L1475.39088,924.417591 L1480.09231,916.245641 L1577.95501,972.42987 L1673.44575,917.607412 L1673.44575,800.915589 L1688.18197,800.915589 L1684.06999,793.76821 L1786.63412,734.884829 L1791.33555,743.05678 L1795.31264,736.143871 L1788.97776,736.143871 L1788.97776,619.276075 L1691.14338,563.108107 L1693.22278,559.49373 L1680.51914,559.49373 L1680.51914,438.193966 L1688.18197,438.193966 L1684.06999,431.046587 L1786.63412,372.163207 L1794.85808,386.457966 L1697.02371,442.625934 L1697.02371,552.887015 L1699.36734,548.813347 L1797.23004,604.997576 L1892.72078,550.175119 L1892.72078,438.193966 L1909.16438,438.193966 L1900.98723,423.980581 L2003.55136,365.097201 L2011.77532,379.39196 L1909.22535,438.26721 L1909.22535,551.52876 L2007.05973,607.696728 L1998.83577,621.991487 L1899.79417,565.130438 L1805.48233,619.276075 L1805.48233,736.143871 L1798.23,736.143871 L1898.60111,793.76821 L1890.37715,808.062969 L1791.33555,751.201919 L1692.29396,808.062969 L1689.95032,803.989302 L1689.95032,920.319308 L1692.29396,916.245641 L1794.85808,975.129021 L1790.7461,982.276401 L1800.76674,982.276401 L1800.76674,1102.6772 L1897.43637,1158.17648 L1998.83577,1099.96179 L2007.05973,1114.25655 L1904.50976,1173.1318 Z M1900.38362,1165.99255 L1897.43637,1160.86969 L1894.48913,1165.99255 L1900.38362,1165.99255 Z M734.778684,1103.57616 L737.400716,1108.13374 L740.022747,1103.57616 L734.778684,1103.57616 Z M421.456045,1164.96798 L420.866596,1165.99255 L422.045494,1165.99255 L421.456045,1164.96798 Z M525.199071,1108.13374 L527.821103,1103.57616 L522.577039,1103.57616 L525.199071,1108.13374 Z M105.247138,1103.57616 L107.869169,1108.13374 L110.491201,1103.57616 L105.247138,1103.57616 Z M1578.04309,378.132919 L1575.50913,378.132919 L1576.77611,380.335157 L1578.04309,378.132919 Z M1798.37288,251.16059 L1793.70751,259.269864 L1788.97776,256.554452 L1784.248,259.269864 L1779.58263,251.16059 L1692.30812,201.055174 L1590.90873,259.269864 L1582.68476,244.975105 L1680.51914,188.807137 L1680.51914,73.1170085 L1692.24714,73.1170085 L1684.06999,58.9036232 L1786.63412,0.020242913 L1793.36813,11.7251962 L1796.03698,7.08624855 L1895.07858,63.947298 L1994.12017,7.08624855 L2002.34414,21.3810079 L1899.78001,80.2643882 L1895.07858,72.0924377 L1892.72078,76.190721 L1892.72078,194.416772 L1883.37768,194.416772 L1886.81213,200.386484 L1798.37288,251.16059 Z M1788.97776,237.53821 L1876.21621,187.453496 L1876.21621,73.1170085 L1877.92771,73.1170085 L1787.81302,21.3810079 L1790.40852,16.8695554 L1692.43569,73.1170085 L1697.02371,73.1170085 L1697.02371,190.165392 L1699.36734,186.091725 L1788.97776,237.53821 Z M1694.57783,194.416772 L1690.0384,194.416772 L1692.30812,198.361958 L1694.57783,194.416772 Z M422.723021,922.215353 L420.189068,922.215353 L421.456045,924.417591 L422.723021,922.215353 Z" id="Combined-Shape" stroke="#FFD045" stroke-width="6" fill="#FFD045"></path>
                    </g>
                    <path d="M457.681935,864.905186 C439.336576,864.905186 424.464725,850.049442 424.464725,831.723953 C424.464725,813.398464 439.336576,798.54272 457.681935,798.54272 C476.027294,798.54272 490.899146,813.398464 490.899146,831.723953 C490.899146,850.049442 476.027294,864.905186 457.681935,864.905186 Z M728.867731,864.905186 C710.522373,864.905186 695.650521,850.049442 695.650521,831.723953 C695.650521,813.398464 710.522373,798.54272 728.867731,798.54272 C747.21309,798.54272 762.084942,813.398464 762.084942,831.723953 C762.084942,850.049442 747.21309,864.905186 728.867731,864.905186 Z M853.849011,874.327519 C835.503653,874.327519 820.631801,859.471775 820.631801,841.146286 C820.631801,822.820797 835.503653,807.965053 853.849011,807.965053 C872.19437,807.965053 887.066222,822.820797 887.066222,841.146286 C887.066222,859.471775 872.19437,874.327519 853.849011,874.327519 Z M1094.37902,864.905186 C1076.03366,864.905186 1061.16181,850.049442 1061.16181,831.723953 C1061.16181,813.398464 1076.03366,798.54272 1094.37902,798.54272 C1112.72438,798.54272 1127.59623,813.398464 1127.59623,831.723953 C1127.59623,850.049442 1112.72438,864.905186 1094.37902,864.905186 Z M1202.85334,803.660021 C1184.50798,803.660021 1169.63613,788.804277 1169.63613,770.478788 C1169.63613,752.1533 1184.50798,737.297556 1202.85334,737.297556 C1221.1987,737.297556 1236.07055,752.1533 1236.07055,770.478788 C1236.07055,788.804277 1221.1987,803.660021 1202.85334,803.660021 Z M1202.85334,683.525276 C1184.50798,683.525276 1169.63613,668.669532 1169.63613,650.344043 C1169.63613,632.018554 1184.50798,617.16281 1202.85334,617.16281 C1221.1987,617.16281 1236.07055,632.018554 1236.07055,650.344043 C1236.07055,668.669532 1221.1987,683.525276 1202.85334,683.525276 Z M1308.96952,874.327519 C1290.62416,874.327519 1275.75231,859.471775 1275.75231,841.146286 C1275.75231,822.820797 1290.62416,807.965053 1308.96952,807.965053 C1327.31488,807.965053 1342.18673,822.820797 1342.18673,841.146286 C1342.18673,859.471775 1327.31488,874.327519 1308.96952,874.327519 Z M693.495671,973.262015 C675.150312,973.262015 660.27846,958.406271 660.27846,940.080782 C660.27846,921.755293 675.150312,906.899549 693.495671,906.899549 C711.84103,906.899549 726.712881,921.755293 726.712881,940.080782 C726.712881,958.406271 711.84103,973.262015 693.495671,973.262015 Z M457.681935,992.106681 C439.336576,992.106681 424.464725,977.250937 424.464725,958.925448 C424.464725,940.599959 439.336576,925.744215 457.681935,925.744215 C476.027294,925.744215 490.899146,940.599959 490.899146,958.925448 C490.899146,977.250937 476.027294,992.106681 457.681935,992.106681 Z M877.430385,992.106681 C859.085026,992.106681 844.213174,977.250937 844.213174,958.925448 C844.213174,940.599959 859.085026,925.744215 877.430385,925.744215 C895.775744,925.744215 910.647595,940.599959 910.647595,958.925448 C910.647595,977.250937 895.775744,992.106681 877.430385,992.106681 Z M1094.37902,992.106681 C1076.03366,992.106681 1061.16181,977.250937 1061.16181,958.925448 C1061.16181,940.599959 1076.03366,925.744215 1094.37902,925.744215 C1112.72438,925.744215 1127.59623,940.599959 1127.59623,958.925448 C1127.59623,977.250937 1112.72438,992.106681 1094.37902,992.106681 Z M1308.96952,499.789783 C1290.62416,499.789783 1275.75231,484.934039 1275.75231,466.60855 C1275.75231,448.283061 1290.62416,433.427317 1308.96952,433.427317 C1327.31488,433.427317 1342.18673,448.283061 1342.18673,466.60855 C1342.18673,484.934039 1327.31488,499.789783 1308.96952,499.789783 Z M1511.76933,499.789783 C1493.42398,499.789783 1478.55212,484.934039 1478.55212,466.60855 C1478.55212,448.283061 1493.42398,433.427317 1511.76933,433.427317 C1530.11469,433.427317 1544.98654,448.283061 1544.98654,466.60855 C1544.98654,484.934039 1530.11469,499.789783 1511.76933,499.789783 Z M1417.44384,438.544618 C1399.09848,438.544618 1384.22663,423.688874 1384.22663,405.363385 C1384.22663,387.037897 1399.09848,372.182153 1417.44384,372.182153 C1435.7892,372.182153 1450.66105,387.037897 1450.66105,405.363385 C1450.66105,423.688874 1435.7892,438.544618 1417.44384,438.544618 Z M1308.96952,626.991278 C1290.62416,626.991278 1275.75231,612.135534 1275.75231,593.810045 C1275.75231,575.484556 1290.62416,560.628812 1308.96952,560.628812 C1327.31488,560.628812 1342.18673,575.484556 1342.18673,593.810045 C1342.18673,612.135534 1327.31488,626.991278 1308.96952,626.991278 Z M1617.88552,311.343123 C1599.54016,311.343123 1584.6683,296.487379 1584.6683,278.16189 C1584.6683,259.836401 1599.54016,244.980657 1617.88552,244.980657 C1636.23087,244.980657 1651.10273,259.836401 1651.10273,278.16189 C1651.10273,296.487379 1636.23087,311.343123 1617.88552,311.343123 Z M1417.44384,311.343123 C1399.09848,311.343123 1384.22663,296.487379 1384.22663,278.16189 C1384.22663,259.836401 1399.09848,244.980657 1417.44384,244.980657 C1435.7892,244.980657 1450.66105,259.836401 1450.66105,278.16189 C1450.66105,296.487379 1435.7892,311.343123 1417.44384,311.343123 Z M1202.85334,440.900201 C1184.50798,440.900201 1169.63613,426.044458 1169.63613,407.718969 C1169.63613,389.39348 1184.50798,374.537736 1202.85334,374.537736 C1221.1987,374.537736 1236.07055,389.39348 1236.07055,407.718969 C1236.07055,426.044458 1221.1987,440.900201 1202.85334,440.900201 Z M1726.35983,250.097959 C1708.01448,250.097959 1693.14262,235.242215 1693.14262,216.916726 C1693.14262,198.591237 1708.01448,183.735493 1726.35983,183.735493 C1744.70519,183.735493 1759.57704,198.591237 1759.57704,216.916726 C1759.57704,235.242215 1744.70519,250.097959 1726.35983,250.097959 Z M1716.92728,137.029963 C1698.58193,137.029963 1683.71007,122.174219 1683.71007,103.84873 C1683.71007,85.5232413 1698.58193,70.6674973 1716.92728,70.6674973 C1735.27264,70.6674973 1750.1445,85.5232413 1750.1445,103.84873 C1750.1445,122.174219 1735.27264,137.029963 1716.92728,137.029963 Z M1825.4016,75.7847985 C1807.05624,75.7847985 1792.18439,60.9290546 1792.18439,42.6035657 C1792.18439,24.2780769 1807.05624,9.42233298 1825.4016,9.42233298 C1843.74696,9.42233298 1858.61881,24.2780769 1858.61881,42.6035657 C1858.61881,60.9290546 1843.74696,75.7847985 1825.4016,75.7847985 Z M1825.4016,311.343123 C1807.05624,311.343123 1792.18439,296.487379 1792.18439,278.16189 C1792.18439,259.836401 1807.05624,244.980657 1825.4016,244.980657 C1843.74696,244.980657 1858.61881,259.836401 1858.61881,278.16189 C1858.61881,296.487379 1843.74696,311.343123 1825.4016,311.343123 Z M1933.87592,250.097959 C1915.53056,250.097959 1900.65871,235.242215 1900.65871,216.916726 C1900.65871,198.591237 1915.53056,183.735493 1933.87592,183.735493 C1952.22128,183.735493 1967.09313,198.591237 1967.09313,216.916726 C1967.09313,235.242215 1952.22128,250.097959 1933.87592,250.097959 Z M1933.87592,137.029963 C1915.53056,137.029963 1900.65871,122.174219 1900.65871,103.84873 C1900.65871,85.5232413 1915.53056,70.6674973 1933.87592,70.6674973 C1952.22128,70.6674973 1967.09313,85.5232413 1967.09313,103.84873 C1967.09313,122.174219 1952.22128,137.029963 1933.87592,137.029963 Z M2047.06651,66.3624655 C2028.72116,66.3624655 2013.8493,51.5067216 2013.8493,33.1812328 C2013.8493,14.8557439 2028.72116,0 2047.06651,0 C2065.41187,0 2080.28373,14.8557439 2080.28373,33.1812328 C2080.28373,51.5067216 2065.41187,66.3624655 2047.06651,66.3624655 Z M1617.88552,438.544618 C1599.54016,438.544618 1584.6683,423.688874 1584.6683,405.363385 C1584.6683,387.037897 1599.54016,372.182153 1617.88552,372.182153 C1636.23087,372.182153 1651.10273,387.037897 1651.10273,405.363385 C1651.10273,423.688874 1636.23087,438.544618 1617.88552,438.544618 Z M1726.35983,502.145366 C1708.01448,502.145366 1693.14262,487.289622 1693.14262,468.964133 C1693.14262,450.638644 1708.01448,435.7829 1726.35983,435.7829 C1744.70519,435.7829 1759.57704,450.638644 1759.57704,468.964133 C1759.57704,487.289622 1744.70519,502.145366 1726.35983,502.145366 Z M1716.92728,864.905186 C1698.58193,864.905186 1683.71007,850.049442 1683.71007,831.723953 C1683.71007,813.398464 1698.58193,798.54272 1716.92728,798.54272 C1735.27264,798.54272 1750.1445,813.398464 1750.1445,831.723953 C1750.1445,850.049442 1735.27264,864.905186 1716.92728,864.905186 Z M1943.30847,864.905186 C1924.96311,864.905186 1910.09126,850.049442 1910.09126,831.723953 C1910.09126,813.398464 1924.96311,798.54272 1943.30847,798.54272 C1961.65383,798.54272 1976.52568,813.398464 1976.52568,831.723953 C1976.52568,850.049442 1961.65383,864.905186 1943.30847,864.905186 Z M1834.83415,440.900201 C1816.48879,440.900201 1801.61694,426.044458 1801.61694,407.718969 C1801.61694,389.39348 1816.48879,374.537736 1834.83415,374.537736 C1853.17951,374.537736 1868.05136,389.39348 1868.05136,407.718969 C1868.05136,426.044458 1853.17951,440.900201 1834.83415,440.900201 Z M1943.30847,502.145366 C1924.96311,502.145366 1910.09126,487.289622 1910.09126,468.964133 C1910.09126,450.638644 1924.96311,435.7829 1943.30847,435.7829 C1961.65383,435.7829 1976.52568,450.638644 1976.52568,468.964133 C1976.52568,487.289622 1961.65383,502.145366 1943.30847,502.145366 Z M2051.78279,440.900201 C2033.43743,440.900201 2018.56558,426.044458 2018.56558,407.718969 C2018.56558,389.39348 2033.43743,374.537736 2051.78279,374.537736 C2070.12815,374.537736 2085,389.39348 2085,407.718969 C2085,426.044458 2070.12815,440.900201 2051.78279,440.900201 Z M1726.35983,629.346861 C1708.01448,629.346861 1693.14262,614.491117 1693.14262,596.165628 C1693.14262,577.840139 1708.01448,562.984396 1726.35983,562.984396 C1744.70519,562.984396 1759.57704,577.840139 1759.57704,596.165628 C1759.57704,614.491117 1744.70519,629.346861 1726.35983,629.346861 Z M1834.83415,685.880859 C1816.48879,685.880859 1801.61694,671.025115 1801.61694,652.699626 C1801.61694,634.374137 1816.48879,619.518393 1834.83415,619.518393 C1853.17951,619.518393 1868.05136,634.374137 1868.05136,652.699626 C1868.05136,671.025115 1853.17951,685.880859 1834.83415,685.880859 Z M2051.78279,685.880859 C2033.43743,685.880859 2018.56558,671.025115 2018.56558,652.699626 C2018.56558,634.374137 2033.43743,619.518393 2051.78279,619.518393 C2070.12815,619.518393 2085,634.374137 2085,652.699626 C2085,671.025115 2070.12815,685.880859 2051.78279,685.880859 Z M1943.30847,624.635695 C1924.96311,624.635695 1910.09126,609.779951 1910.09126,591.454462 C1910.09126,573.128973 1924.96311,558.273229 1943.30847,558.273229 C1961.65383,558.273229 1976.52568,573.128973 1976.52568,591.454462 C1976.52568,609.779951 1961.65383,624.635695 1943.30847,624.635695 Z M1834.83415,813.082354 C1816.48879,813.082354 1801.61694,798.22661 1801.61694,779.901121 C1801.61694,761.575633 1816.48879,746.719889 1834.83415,746.719889 C1853.17951,746.719889 1868.05136,761.575633 1868.05136,779.901121 C1868.05136,798.22661 1853.17951,813.082354 1834.83415,813.082354 Z M1308.96952,992.106681 C1290.62416,992.106681 1275.75231,977.250937 1275.75231,958.925448 C1275.75231,940.599959 1290.62416,925.744215 1308.96952,925.744215 C1327.31488,925.744215 1342.18673,940.599959 1342.18673,958.925448 C1342.18673,977.250937 1327.31488,992.106681 1308.96952,992.106681 Z M457.681935,1241.7985 C439.336576,1241.7985 424.464725,1226.94276 424.464725,1208.61727 C424.464725,1190.29178 439.336576,1175.43604 457.681935,1175.43604 C476.027294,1175.43604 490.899146,1190.29178 490.899146,1208.61727 C490.899146,1226.94276 476.027294,1241.7985 457.681935,1241.7985 Z M457.681935,1369 C439.336576,1369 424.464725,1354.14426 424.464725,1335.81877 C424.464725,1317.49328 439.336576,1302.63753 457.681935,1302.63753 C476.027294,1302.63753 490.899146,1317.49328 490.899146,1335.81877 C490.899146,1354.14426 476.027294,1369 457.681935,1369 Z M669.914297,1241.7985 C651.568939,1241.7985 636.697087,1226.94276 636.697087,1208.61727 C636.697087,1190.29178 651.568939,1175.43604 669.914297,1175.43604 C688.259656,1175.43604 703.131508,1190.29178 703.131508,1208.61727 C703.131508,1226.94276 688.259656,1241.7985 669.914297,1241.7985 Z M238.375161,1241.7985 C220.029802,1241.7985 205.15795,1226.94276 205.15795,1208.61727 C205.15795,1190.29178 220.029802,1175.43604 238.375161,1175.43604 C256.72052,1175.43604 271.592371,1190.29178 271.592371,1208.61727 C271.592371,1226.94276 256.72052,1241.7985 238.375161,1241.7985 Z M33.2172105,1241.7985 C14.8718517,1241.7985 0,1226.94276 0,1208.61727 C0,1190.29178 14.8718517,1175.43604 33.2172105,1175.43604 C51.5625693,1175.43604 66.4344211,1190.29178 66.4344211,1208.61727 C66.4344211,1226.94276 51.5625693,1241.7985 33.2172105,1241.7985 Z M877.430385,1241.7985 C859.085026,1241.7985 844.213174,1226.94276 844.213174,1208.61727 C844.213174,1190.29178 859.085026,1175.43604 877.430385,1175.43604 C895.775744,1175.43604 910.647595,1190.29178 910.647595,1208.61727 C910.647595,1226.94276 895.775744,1241.7985 877.430385,1241.7985 Z M1308.96952,1241.7985 C1290.62416,1241.7985 1275.75231,1226.94276 1275.75231,1208.61727 C1275.75231,1190.29178 1290.62416,1175.43604 1308.96952,1175.43604 C1327.31488,1175.43604 1342.18673,1190.29178 1342.18673,1208.61727 C1342.18673,1226.94276 1327.31488,1241.7985 1308.96952,1241.7985 Z M1308.96952,1369 C1290.62416,1369 1275.75231,1354.14426 1275.75231,1335.81877 C1275.75231,1317.49328 1290.62416,1302.63753 1308.96952,1302.63753 C1327.31488,1302.63753 1342.18673,1317.49328 1342.18673,1335.81877 C1342.18673,1354.14426 1327.31488,1369 1308.96952,1369 Z M1919.7271,1241.7985 C1901.38174,1241.7985 1886.50989,1226.94276 1886.50989,1208.61727 C1886.50989,1190.29178 1901.38174,1175.43604 1919.7271,1175.43604 C1938.07246,1175.43604 1952.94431,1190.29178 1952.94431,1208.61727 C1952.94431,1226.94276 1938.07246,1241.7985 1919.7271,1241.7985 Z M1919.7271,1369 C1901.38174,1369 1886.50989,1354.14426 1886.50989,1335.81877 C1886.50989,1317.49328 1901.38174,1302.63753 1919.7271,1302.63753 C1938.07246,1302.63753 1952.94431,1317.49328 1952.94431,1335.81877 C1952.94431,1354.14426 1938.07246,1369 1919.7271,1369 Z M1511.76933,992.106681 C1493.42398,992.106681 1478.55212,977.250937 1478.55212,958.925448 C1478.55212,940.599959 1493.42398,925.744215 1511.76933,925.744215 C1530.11469,925.744215 1544.98654,940.599959 1544.98654,958.925448 C1544.98654,977.250937 1530.11469,992.106681 1511.76933,992.106681 Z M1716.92728,992.106681 C1698.58193,992.106681 1683.71007,977.250937 1683.71007,958.925448 C1683.71007,940.599959 1698.58193,925.744215 1716.92728,925.744215 C1735.27264,925.744215 1750.1445,940.599959 1750.1445,958.925448 C1750.1445,977.250937 1735.27264,992.106681 1716.92728,992.106681 Z M566.156254,1053.35185 C547.810895,1053.35185 532.939043,1038.4961 532.939043,1020.17061 C532.939043,1001.84512 547.810895,986.98938 566.156254,986.98938 C584.501612,986.98938 599.373464,1001.84512 599.373464,1020.17061 C599.373464,1038.4961 584.501612,1053.35185 566.156254,1053.35185 Z M349.207617,1053.35185 C330.862258,1053.35185 315.990406,1038.4961 315.990406,1020.17061 C315.990406,1001.84512 330.862258,986.98938 349.207617,986.98938 C367.552975,986.98938 382.424827,1001.84512 382.424827,1020.17061 C382.424827,1038.4961 367.552975,1053.35185 349.207617,1053.35185 Z M146.407804,1053.35185 C128.062445,1053.35185 113.190593,1038.4961 113.190593,1020.17061 C113.190593,1001.84512 128.062445,986.98938 146.407804,986.98938 C164.753163,986.98938 179.625014,1001.84512 179.625014,1020.17061 C179.625014,1038.4961 164.753163,1053.35185 146.407804,1053.35185 Z M1825.4016,1053.35185 C1807.05624,1053.35185 1792.18439,1038.4961 1792.18439,1020.17061 C1792.18439,1001.84512 1807.05624,986.98938 1825.4016,986.98938 C1843.74696,986.98938 1858.61881,1001.84512 1858.61881,1020.17061 C1858.61881,1038.4961 1843.74696,1053.35185 1825.4016,1053.35185 Z M1608.45297,1053.35185 C1590.10761,1053.35185 1575.23576,1038.4961 1575.23576,1020.17061 C1575.23576,1001.84512 1590.10761,986.98938 1608.45297,986.98938 C1626.79832,986.98938 1641.67018,1001.84512 1641.67018,1020.17061 C1641.67018,1038.4961 1626.79832,1053.35185 1608.45297,1053.35185 Z M1405.65315,1053.35185 C1387.30779,1053.35185 1372.43594,1038.4961 1372.43594,1020.17061 C1372.43594,1001.84512 1387.30779,986.98938 1405.65315,986.98938 C1423.99851,986.98938 1438.87036,1001.84512 1438.87036,1020.17061 C1438.87036,1038.4961 1423.99851,1053.35185 1405.65315,1053.35185 Z M1202.85334,1053.35185 C1184.50798,1053.35185 1169.63613,1038.4961 1169.63613,1020.17061 C1169.63613,1001.84512 1184.50798,986.98938 1202.85334,986.98938 C1221.1987,986.98938 1236.07055,1001.84512 1236.07055,1020.17061 C1236.07055,1038.4961 1221.1987,1053.35185 1202.85334,1053.35185 Z M985.904703,1053.35185 C967.559345,1053.35185 952.687493,1038.4961 952.687493,1020.17061 C952.687493,1001.84512 967.559345,986.98938 985.904703,986.98938 C1004.25006,986.98938 1019.12191,1001.84512 1019.12191,1020.17061 C1019.12191,1038.4961 1004.25006,1053.35185 985.904703,1053.35185 Z M783.104891,1053.35185 C764.759532,1053.35185 749.88768,1038.4961 749.88768,1020.17061 C749.88768,1001.84512 764.759532,986.98938 783.104891,986.98938 C801.450249,986.98938 816.322101,1001.84512 816.322101,1020.17061 C816.322101,1038.4961 801.450249,1053.35185 783.104891,1053.35185 Z M566.156254,1171.13101 C547.810895,1171.13101 532.939043,1156.27526 532.939043,1137.94977 C532.939043,1119.62429 547.810895,1104.76854 566.156254,1104.76854 C584.501612,1104.76854 599.373464,1119.62429 599.373464,1137.94977 C599.373464,1156.27526 584.501612,1171.13101 566.156254,1171.13101 Z M349.207617,1171.13101 C330.862258,1171.13101 315.990406,1156.27526 315.990406,1137.94977 C315.990406,1119.62429 330.862258,1104.76854 349.207617,1104.76854 C367.552975,1104.76854 382.424827,1119.62429 382.424827,1137.94977 C382.424827,1156.27526 367.552975,1171.13101 349.207617,1171.13101 Z M146.407804,1171.13101 C128.062445,1171.13101 113.190593,1156.27526 113.190593,1137.94977 C113.190593,1119.62429 128.062445,1104.76854 146.407804,1104.76854 C164.753163,1104.76854 179.625014,1119.62429 179.625014,1137.94977 C179.625014,1156.27526 164.753163,1171.13101 146.407804,1171.13101 Z M1825.4016,1171.13101 C1807.05624,1171.13101 1792.18439,1156.27526 1792.18439,1137.94977 C1792.18439,1119.62429 1807.05624,1104.76854 1825.4016,1104.76854 C1843.74696,1104.76854 1858.61881,1119.62429 1858.61881,1137.94977 C1858.61881,1156.27526 1843.74696,1171.13101 1825.4016,1171.13101 Z M2028.20142,1171.13101 C2009.85606,1171.13101 1994.98421,1156.27526 1994.98421,1137.94977 C1994.98421,1119.62429 2009.85606,1104.76854 2028.20142,1104.76854 C2046.54677,1104.76854 2061.41863,1119.62429 2061.41863,1137.94977 C2061.41863,1156.27526 2046.54677,1171.13101 2028.20142,1171.13101 Z M1608.45297,1171.13101 C1590.10761,1171.13101 1575.23576,1156.27526 1575.23576,1137.94977 C1575.23576,1119.62429 1590.10761,1104.76854 1608.45297,1104.76854 C1626.79832,1104.76854 1641.67018,1119.62429 1641.67018,1137.94977 C1641.67018,1156.27526 1626.79832,1171.13101 1608.45297,1171.13101 Z M1405.65315,1171.13101 C1387.30779,1171.13101 1372.43594,1156.27526 1372.43594,1137.94977 C1372.43594,1119.62429 1387.30779,1104.76854 1405.65315,1104.76854 C1423.99851,1104.76854 1438.87036,1119.62429 1438.87036,1137.94977 C1438.87036,1156.27526 1423.99851,1171.13101 1405.65315,1171.13101 Z M1202.85334,1171.13101 C1184.50798,1171.13101 1169.63613,1156.27526 1169.63613,1137.94977 C1169.63613,1119.62429 1184.50798,1104.76854 1202.85334,1104.76854 C1221.1987,1104.76854 1236.07055,1119.62429 1236.07055,1137.94977 C1236.07055,1156.27526 1221.1987,1171.13101 1202.85334,1171.13101 Z M985.904703,1171.13101 C967.559345,1171.13101 952.687493,1156.27526 952.687493,1137.94977 C952.687493,1119.62429 967.559345,1104.76854 985.904703,1104.76854 C1004.25006,1104.76854 1019.12191,1119.62429 1019.12191,1137.94977 C1019.12191,1156.27526 1004.25006,1171.13101 985.904703,1171.13101 Z M783.104891,1171.13101 C764.759532,1171.13101 749.88768,1156.27526 749.88768,1137.94977 C749.88768,1119.62429 764.759532,1104.76854 783.104891,1104.76854 C801.450249,1104.76854 816.322101,1119.62429 816.322101,1137.94977 C816.322101,1156.27526 801.450249,1171.13101 783.104891,1171.13101 Z" id="Combined-Shape" fill="#FFFFFF"></path>
                </g>
            </g>
        </g>
        <path d="M201.207011,255.809305 L246.152656,211.900867 C256.783152,201.51569 256.982022,184.479121 246.596845,173.848625 C246.564648,173.815667 246.532366,173.782792 246.5,173.75 L246.5,173.75 C235.84988,162.959747 218.615952,162.396931 207.284512,172.469323 L200.5,178.5 L196.673973,174.341275 C186.058786,162.803028 168.126121,161.981128 156.5,172.5 L156.5,172.5 C145.467431,182.481848 144.615653,199.5174 154.597502,210.549969 C154.898495,210.882646 155.207753,211.207753 155.524984,211.524984 L199.801099,255.801099 C200.188404,256.188404 200.815212,256.192062 201.207011,255.809305 Z" id="Path-59" fill="#FF8E75"></path>
    </g>
</svg>