<?xml version="1.0" encoding="UTF-8"?>
<svg width="400px" height="400px" viewBox="0 0 400 400" version="1.1" xmlns="http://www.w3.org/2000/svg" xmlns:xlink="http://www.w3.org/1999/xlink">
    <!-- Generator: Sketch 51.3 (57544) - http://www.bohemiancoding.com/sketch -->
    <title>benefits5</title>
    <desc>Created with Sketch.</desc>
    <defs>
        <circle id="path-1" cx="190" cy="190" r="190"></circle>
        <path d="M60.1567441,129.413234 L87.5225032,82.3865262 C90.8558223,76.6583816 98.20159,74.716992 103.929735,78.0503111 C105.085059,78.7226172 106.119937,79.5832302 106.991625,80.5966058 L139.537112,118.432142 C135.555875,117.019256 130.566493,110.884814 129.100503,113.050781 C123.624436,121.141547 130.741552,134.867179 121.848661,141.232025 C114.446685,146.529789 114.78637,125.661464 107.127155,126.478643 L102.149151,130.383481 C96.8575302,130.948056 97.4478217,140.00524 94.2411892,144.252298 C93.5845981,145.121927 92.1613998,145.024112 91.0721607,145.054516 C89.5783981,145.096212 87.5873292,145.610629 86.6280829,144.464806 C82.7376259,139.817639 81.334615,133.419439 77.4424159,128.773731 C74.0902856,124.772647 63.894546,139.42193 60.8800579,132.556377 C60.4391036,131.552096 60.229446,130.497547 60.1567441,129.413234 Z" id="path-3"></path>
        <path d="M219.534316,64.1209135 L252.678653,6.98093571 C256.003985,1.24815047 263.347039,-0.703476421 269.079824,2.62185505 C270.870285,3.66042114 272.361665,5.1444569 273.409057,6.92976939 L304.478937,59.8893673 C302.601101,59.8062429 300.605598,59.23843 298.873306,59.8759161 C296.100571,60.8962864 294.448929,63.9642943 291.73303,65.127525 C290.435858,65.6831091 288.585036,65.6624534 287.517399,64.7396976 C285.426848,62.932841 285.193109,59.549355 283.13973,57.7003634 C274.857775,50.2427696 278.537754,76.2559124 273.97797,77.7425432 C271.981108,78.393582 269.271392,77.4262526 267.99852,75.7555915 C264.910834,71.7029612 264.073489,66.3445624 261.814532,61.7778645 C261.387321,60.9142174 258.360037,58.2812403 257.250918,60.5346915 C252.859872,69.4561948 250.69419,79.3399259 246.567068,88.3865477 C245.312067,91.1375019 237.314418,96.6604578 235.869937,89.7306621 C233.018591,76.0515325 237.802138,70.2851603 231.598522,57.6472363 L228.424181,58.5344581 C227.284094,56.2118898 226.776041,63.7622256 224.750445,65.3719095 C223.572093,66.3083125 221.203825,66.1944895 220.247927,65.0318963 C219.998504,64.7285398 219.76082,64.4249006 219.534316,64.1209135 Z" id="path-5"></path>
        <path d="M7.96944009,73.8391422 L55.8042534,8.7683031 C58.4211945,5.20841554 63.4285036,4.44400644 66.9883911,7.0609476 C67.6406124,7.5404079 68.2162863,8.1160818 68.6957466,8.7683031 L100.99555,52.7064973 C99.7476984,58.9839839 97.7454088,65.1804128 95.3711791,71.0969169 C94.9523821,72.1405456 94.302783,73.4348629 93.2062518,73.6842042 C80.0216654,76.6822608 87.9389363,50.6429672 78.6202201,56.1389958 C69.559037,61.4831357 79.0436715,62.863081 70.706946,73.5035723 C69.3610157,75.221436 66.1340047,72.4180444 64.1616934,73.3521602 C61.7302927,74.5037075 61.0876852,78.140385 58.6258547,79.2253556 C57.0979028,79.89875 55.1869224,78.8363732 53.7886368,77.9237429 C51.8614029,76.6658795 51.0601025,73.9806961 49.0045459,72.9457382 C47.4852974,72.1808077 45.5764952,72.6486337 43.9016927,72.9457382 C39.7812772,73.6766867 41.1540389,77.3660133 38.1613149,80.0567939 C30.7319724,86.7365714 29.1268399,65.1336208 24.1251481,69.4951363 C21.0558342,72.1716028 19.5254883,76.2477529 16.7936152,79.2678572 C15.8464871,80.3149138 14.5918992,81.1994437 13.2234774,81.5470077 C11.7398517,81.9238322 9.51873912,82.5903468 8.63595659,81.3398122 C7.22985099,79.347947 7.60032591,76.4735137 7.93733588,74.0587499 C7.94752948,73.9857101 7.95823259,73.9125065 7.96944009,73.8391422 Z" id="path-7"></path>
    </defs>
    <g id="benefits5" stroke="none" stroke-width="1" fill="none" fill-rule="evenodd">
        <g id="Group-2-+-Group-3-Mask" transform="translate(10.000000, 10.000000)">
            <mask id="mask-2" fill="white">
                <use xlink:href="#path-1"></use>
            </mask>
            <use id="Mask" fill="#FFECC9" xlink:href="#path-1"></use>
            <g id="Group-2" mask="url(#mask-2)">
                <g transform="translate(125.000000, 27.000000)">
                    <circle id="Oval-2" fill="#FFDE8A" cx="81" cy="80" r="40"></circle>
                    <g id="Group" stroke-width="1" fill="none">
                        <polygon id="Path-2" fill="#FFD045" points="100.701754 135.476426 120.602339 152.469241 115.567251 127.099686"></polygon>
                        <polygon id="Path-2" fill="#FFD045" transform="translate(135.705595, 120.511845) rotate(-29.000000) translate(-135.705595, -120.511845) " points="125.755303 116.203807 145.655887 133.196623 140.6208 107.827067"></polygon>
                        <polygon id="Path-2" fill="#FFD045" transform="translate(147.888666, 90.928793) rotate(-59.000000) translate(-147.888666, -90.928793) " points="137.938373 86.6207556 157.838958 103.613571 152.80387 78.2440156"></polygon>
                        <polygon id="Path-2" fill="#FFD045" transform="translate(145.499532, 61.349479) rotate(-81.000000) translate(-145.499532, -61.349479) " points="135.54924 57.0414412 155.449825 74.0342566 150.414737 48.6647011"></polygon>
                        <polygon id="Path-2" fill="#FFD045" transform="translate(131.484319, 36.272163) rotate(-106.000000) translate(-131.484319, -36.272163) " points="121.534027 31.9641256 141.434612 48.9569411 136.399524 23.5873856"></polygon>
                        <polygon id="Path-2" fill="#FFD045" transform="translate(104.611004, 20.153989) rotate(-133.000000) translate(-104.611004, -20.153989) " points="94.6607119 15.8459509 114.561297 32.8387663 109.526209 7.46921088"></polygon>
                        <polygon id="Path-2" fill="#FFD045" transform="translate(74.545601, 15.809214) rotate(-157.000000) translate(-74.545601, -15.809214) " points="64.5953085 11.5011759 84.4958933 28.4939914 79.4608056 3.12443592"></polygon>
                        <polygon id="Path-2" fill="#FFD045" transform="translate(44.587221, 25.720856) rotate(175.000000) translate(-44.587221, -25.720856) " points="34.6369281 21.4128179 54.5375129 38.4056334 49.5024252 13.0360779"></polygon>
                        <polygon id="Path-2" fill="#FFD045" transform="translate(24.933665, 45.360520) rotate(151.000000) translate(-24.933665, -45.360520) " points="14.9833727 41.0524825 34.8839575 58.0452979 29.8488698 32.6757425"></polygon>
                        <polygon id="Path-2" fill="#FFD045" transform="translate(16.076810, 71.495052) rotate(123.000000) translate(-16.076810, -71.495052) " points="6.12651732 67.1870147 26.0271021 84.1798301 20.9920144 58.8102747"></polygon>
                        <polygon id="Path-2" fill="#FFD045" transform="translate(18.078653, 97.918205) rotate(100.000000) translate(-18.078653, -97.918205) " points="8.12836036 93.6101672 28.0289452 110.602983 22.9938574 85.2334272"></polygon>
                        <polygon id="Path-2" fill="#FFD045" transform="translate(53.502721, 140.991260) rotate(56.000000) translate(-53.502721, -140.991260) " points="43.5524291 136.683223 63.4530139 153.676038 58.4179261 128.306483"></polygon>
                        <polygon id="Path-2" fill="#FFD045" transform="translate(81.518460, 146.838742) rotate(29.000000) translate(-81.518460, -146.838742) " points="71.568168 142.530704 91.4687528 159.52352 86.4336651 134.153964"></polygon>
                        <polygon id="Path-2" fill="#FFD045" transform="translate(30.561887, 123.530987) rotate(76.000000) translate(-30.561887, -123.530987) " points="20.6115948 119.222949 40.5121796 136.215765 35.4770919 110.846209"></polygon>
                    </g>
                </g>
            </g>
            <g id="Path-4" mask="url(#mask-2)">
                <g transform="translate(0.000000, 77.000000)">
                    <path d="M0,232.786711 L87.5225032,82.3836044 C90.8558223,76.6554599 98.20159,74.7140703 103.929735,78.0473894 C105.085059,78.7196955 106.119937,79.5803085 106.991625,80.5936841 L165.748036,148.900553 C166.828502,150.156641 168.722654,150.299012 169.978743,149.218545 C170.233151,148.999708 170.449039,148.739736 170.617417,148.449457 L252.678653,6.97801401 C256.003985,1.24522877 263.347039,-0.706398122 269.079824,2.61893335 C270.870285,3.65749943 272.361665,5.1415352 273.409057,6.92684769 L443,296 C330.555556,370 246.222222,407 190,407 C133.777778,407 70.4444444,370 0,296 L0,232.786711 Z" id="Mask" stroke="none" fill="#FFAFA2" fill-rule="evenodd"></path>
                    <mask id="mask-4" fill="white">
                        <use xlink:href="#path-3"></use>
                    </mask>
                    <use id="Combined-Shape" stroke="none" fill="#FFFFFF" fill-rule="evenodd" xlink:href="#path-3"></use>
                    <mask id="mask-6" fill="white">
                        <use xlink:href="#path-5"></use>
                    </mask>
                    <use id="Combined-Shape" stroke="none" fill="#FFFFFF" fill-rule="evenodd" xlink:href="#path-5"></use>
                </g>
            </g>
            <g id="Path-58" mask="url(#mask-2)">
                <g transform="translate(281.000000, 133.000000)">
                    <path d="M137,183.5 L70,183.5 L0.5,84 L55.8042534,8.7683031 C58.4211945,5.20841554 63.4285036,4.44400644 66.9883911,7.0609476 C67.6406124,7.5404079 68.2162863,8.1160818 68.6957466,8.7683031 L124,84 L137,183.5 Z" id="Mask" stroke="none" fill="#FFAFA2" fill-rule="evenodd"></path>
                    <mask id="mask-8" fill="white">
                        <use xlink:href="#path-7"></use>
                    </mask>
                    <use id="Combined-Shape" stroke="none" fill="#FFFFFF" fill-rule="evenodd" xlink:href="#path-7"></use>
                </g>
            </g>
        </g>
    </g>
</svg>