<?xml version="1.0" encoding="UTF-8"?>
<svg width="390px" height="400px" viewBox="0 0 390 400" version="1.1" xmlns="http://www.w3.org/2000/svg" xmlns:xlink="http://www.w3.org/1999/xlink">
    <!-- Generator: Sketch 51.3 (57544) - http://www.bohemiancoding.com/sketch -->
    <title>children</title>
    <desc>Created with Sketch.</desc>
    <defs></defs>
    <g id="children" stroke="none" stroke-width="1" fill="none" fill-rule="evenodd">
        <path d="M74,239.204946 C74,273.994246 89.872408,302.444817 121.617224,324.55666 C136.434523,334.877646 152.788748,341.216205 170.679899,343.572336 L170.679899,343.572336 C197.510193,347.105686 222.124791,328.219781 225.658141,301.389486 C227.184504,289.799138 224.516727,278.044972 218.136466,268.249145 C213.078422,260.483361 207.065421,253.455383 200.097463,247.165209 C176.582785,225.93784 148.071237,215.913804 114.56282,217.093102 L74,239.204946 Z" id="Path-69" fill="#FFFFFF" transform="translate(150.000000, 280.500000) rotate(29.000000) translate(-150.000000, -280.500000) "></path>
        <path d="M256.542908,160 C265.86836,160.495695 275.362211,159.655103 284.519266,161.487085 C337.036724,171.993847 341.905528,227.127836 336.08676,272.163602 C333.033295,295.796637 340.914627,328.882213 321.049871,342.053355 C287.453224,364.3293 241.574656,355.719902 201.648582,361.301586 C201.595817,351.019721 223.011409,308.963698 224.318524,298.765068 C231.711641,241.081052 203.518794,207.351011 248.056423,169.183796 L256.542908,160 Z" id="Path-71" fill="#3E3E53"></path>
        <path d="M234.951746,198.345907 L188.5,284.5 L93.4022592,265.002974 C80.1996707,262.296167 67.3025575,270.804679 64.5957507,284.007267 C64.5621454,284.171179 64.5302268,284.335432 64.5,284.5 L64.5,284.5 C61.9646147,298.303764 70.529629,311.719573 84.1183836,315.229251 L174.000653,338.443877 C195.750785,344.061461 218.535057,334.169831 229.282397,314.443702 L277.854152,225.293012 C284.6802,212.76419 280.583144,197.08709 268.5,189.5 L268.5,189.5 C257.386986,182.522061 242.721371,185.874202 235.743432,196.987216 C235.464618,197.431253 235.200578,197.884399 234.951746,198.345907 Z" id="Path-70" fill="#E69C92"></path>
        <circle id="Oval-7" fill="#E69C92" cx="266" cy="104" r="72"></circle>
        <circle id="Path" fill="#FABAB2" cx="119" cy="172" r="56"></circle>
        <path d="M138,176.08479 C145.5,188.5 151,186.5 157,176" id="Path" stroke="#3E3E53" stroke-width="4" stroke-linecap="round" stroke-linejoin="round"></path>
        <path d="M123,205 C126.707819,207.666667 129.541152,209 131.5,209 C133.458848,209 136.292181,207.666667 140,205" id="Path" stroke="#3E3E53" stroke-width="4" stroke-linecap="round" stroke-linejoin="round"></path>
        <path d="M157.5,175.25 L164,175.25" id="Line-3" stroke="#3E3E53" stroke-width="4" stroke-linecap="round" stroke-linejoin="round"></path>
        <path d="M156.5,179.5 L162.5,181.5" id="Line-4" stroke="#3E3E53" stroke-width="4" stroke-linecap="round" stroke-linejoin="round"></path>
        <path d="M95.5,179.5 L90,184" id="Line-4" stroke="#3E3E53" stroke-width="4" stroke-linecap="round" stroke-linejoin="round"></path>
        <path d="M101.5,184.5 L99,188" id="Line-4" stroke="#3E3E53" stroke-width="4" stroke-linecap="round" stroke-linejoin="round"></path>
        <path d="M122.7284,127 C117.734416,120.977015 115.876389,120.942225 117.666645,111.185223 C118.373929,107.330484 126.554939,98.7231379 131.02145,104.134446 C136.394591,110.644165 117.659479,113.539524 122.606022,101.690779 C123.447333,99.6755357 125.613392,98.5635929 127.117077,97" id="Path" stroke="#3E3E53" stroke-width="2" stroke-linecap="round" stroke-linejoin="round"></path>
        <path d="M210,102 C212.379796,111.950186 219.233557,121.215526 228,109.588512" id="Path" stroke="#3E3E53" stroke-width="5" stroke-linecap="round" stroke-linejoin="round"></path>
        <path d="M96,179 C105,187 112.5,190 120,179.324106" id="Path-72" stroke="#3E3E53" stroke-width="4" stroke-linecap="round" stroke-linejoin="round"></path>
        <path d="M258,113 C259.520747,127.745993 270.973421,135.629388 282,121.849116" id="Path" stroke="#3E3E53" stroke-width="5" stroke-linecap="round" stroke-linejoin="round"></path>
        <path d="M231,148 C237.454095,160.344163 249.262813,160.635679 259,152.293552" id="Path" stroke="#3E3E53" stroke-width="5" stroke-linecap="round" stroke-linejoin="round"></path>
        <path d="M111.2167,191.267421 C105.063939,191.418284 95.7929347,189.011872 91.7804043,196.254438 C89.1698599,200.966437 93.4807243,209.147191 99.1955701,208.930877 C107.71577,208.608378 120.766478,195.765679 109.613028,191" id="Path-73" fill="#FF8E75" opacity="0.584375"></path>
        <path d="M161.90823,188.223657 C156.76237,188.349831 149.008569,186.33723 145.652691,192.394548 C143.469363,196.335426 147.074753,203.177397 151.854362,202.996483 C158.980229,202.726761 169.895184,191.985774 160.567,188" id="Path-73" fill="#FF8E75" opacity="0.584375" transform="translate(154.584946, 195.500000) scale(-1, 1) translate(-154.584946, -195.500000) "></path>
    </g>
</svg>