<?xml version="1.0" encoding="UTF-8"?>
<svg width="937px" height="621px" viewBox="0 0 937 621" version="1.1" xmlns="http://www.w3.org/2000/svg" xmlns:xlink="http://www.w3.org/1999/xlink">
    <!-- Generator: Sketch 51.3 (57544) - http://www.bohemiancoding.com/sketch -->
    <title>oxytocin</title>
    <desc>Created with Sketch.</desc>
    <defs></defs>
    <g id="oxytocin" stroke="none" stroke-width="1" fill="none" fill-rule="evenodd">
        <g id="Group" transform="translate(31.000000, 14.000000)" stroke="#FFDBD5" stroke-width="7">
            <path d="M354.318237,391.366468 L344.767395,342.702655 L298.664297,337.278761 L277.315357,385.945162 L315.50101,413.675219 L354.318237,391.366468 Z M361.486107,391.541378 L402.243994,414.965451 L398.756006,421.034549 L357.75,397.467878 L316.743994,421.034549 L316.25,420.175 L316.25,468.830972 L358.243994,492.965451 L354.756006,499.034549 L312.75,474.893166 L270.743994,499.034549 L267.75,493.825 L264.756006,499.034549 L222.75,474.893166 L182.75,497.881672 L182.75,547.5 L175.75,547.5 L175.75,498.456384 L135.25,475.180522 L93.7439936,499.034549 L90.75,493.825 L87.7560064,499.034549 L45.75,474.893166 L3.74399357,499.034549 L0.256006435,492.965451 L42.25,468.830972 L42.25,418 L49.25,418 L49.25,468.830972 L90.75,492.681547 L133.756006,467.965451 L135.25,470.565 L136.743994,467.965451 L178.75,492.106834 L219.75,468.543616 L219.75,420.456384 L178.75,396.893166 L136.743994,421.034549 L133.256006,414.965451 L175.75,390.543616 L175.75,341 L182.75,341 L182.75,391.118328 L224.243994,414.965451 L222.5,418 L226.75,418 L226.75,469.118328 L267.75,492.681547 L309.25,468.830972 L309.25,418 L309.543555,418 L271.443404,390.332034 L273.990343,386.824773 L270.044839,385.093962 L293.294839,332.093962 L296.5,333.5 L296.908944,330.023973 L347.908944,336.023973 L347.307541,341.135903 L351.434479,340.325943 L361.486107,391.541378 Z M490.212644,315.5 L492.243994,319.034549 L450.75,342.881672 L450.75,390.543616 L493.243994,414.965451 L489.756006,421.034549 L447.75,396.893166 L407.75,419.881672 L407.75,469.5 L400.75,469.5 L400.75,418 L404,418 L402.256006,414.965451 L443.75,391.118328 L443.75,341 L447,341 L445.256006,337.965451 L487.75,313.543616 L487.75,264 L492.149425,264 L489.256006,258.965451 L531.25,234.830972 L531.25,187 L531.475892,187 L493.256006,165.034549 L496.743994,158.965451 L536.75,181.957409 L576.756006,158.965451 L578.75,162.435 L579.287356,161.5 L578.75,161.5 L578.75,110 L585.75,110 L585.75,161.5 L585.154108,161.5 L623.75,183.681547 L666.25,159.256259 L666.25,110 L673.25,110 L673.25,160.405685 L714.243994,183.965451 L710.756006,190.034549 L668.75,165.893166 L626.743994,190.034549 L623.75,184.825 L620.756006,190.034549 L578.75,165.893166 L538.25,189.169028 L538.25,238.5 L535.362069,238.5 L536.243994,240.034549 L494.544108,264 L494.75,264 L494.75,315.5 L490.212644,315.5 Z M447.212644,392.5 L447.75,393.435 L448.287356,392.5 L447.212644,392.5 Z M807.75,499.031097 L807.75,547.5 L800.75,547.5 L800.75,498.456384 L758.256006,474.034549 L760.862069,469.5 L756.75,469.5 L756.75,420.456384 L714.256006,396.034549 L716.287356,392.5 L712.212644,392.5 L714.243994,396.034549 L672.75,419.881672 L672.75,469.5 L665.75,469.5 L665.75,419.881672 L625.75,396.893166 L583.743994,421.034549 L582.25,418.435 L582.25,469.5 L581.637931,469.5 L584.243994,474.034549 L540.743994,499.034549 L539.75,497.305 L539.75,547.5 L532.75,547.5 L532.75,498.456384 L490.256006,474.034549 L493.743994,467.965451 L537.243994,492.965451 L535.5,496 L539,496 L537.256006,492.965451 L578.085892,469.5 L575.25,469.5 L575.25,420.169028 L536.75,398.042591 L496.743994,421.034549 L493.256006,414.965451 L532.75,392.267754 L532.75,341 L539.75,341 L539.75,391.693041 L580.243994,414.965451 L578.5,418 L582,418 L580.256006,414.965451 L623.756006,389.965451 L625.75,393.435 L627.743994,389.965451 L669.25,413.819478 L709.75,390.543616 L709.75,341 L716,341 L714.256006,337.965451 L757.756006,312.965451 L759.75,316.435 L761.436782,313.5 L758.75,313.5 L758.75,263.881672 L717.256006,240.034549 L718.137931,238.5 L712.75,238.5 L712.75,187 L716,187 L714.256006,183.965451 L757.756006,158.965451 L761.243994,165.034549 L719.75,188.881672 L719.75,235.695 L720.743994,233.965451 L762.25,257.819478 L802.75,234.543616 L802.75,187 L809.724138,187 L806.256006,180.965451 L849.756006,155.965451 L853.243994,162.034549 L809.75,187.031097 L809.75,235.118328 L851.243994,258.965451 L847.756006,265.034549 L805.75,240.893166 L765.75,263.881672 L765.75,313.5 L762.674108,313.5 L805.243994,337.965451 L801.756006,344.034549 L759.75,319.893166 L717.743994,344.034549 L716.75,342.305 L716.75,391.695 L717.743994,389.965451 L761.243994,414.965451 L759.5,418 L763.75,418 L763.75,469.118328 L804.75,492.681547 L847.756006,467.965451 L851.243994,474.034549 L807.75,499.031097 Z M806,496 L804.75,493.825 L803.5,496 L806,496 Z M311.637931,469.5 L312.75,471.435 L313.862069,469.5 L311.637931,469.5 Z M178.75,495.565 L178.5,496 L179,496 L178.75,495.565 Z M222.75,471.435 L223.862069,469.5 L221.637931,469.5 L222.75,471.435 Z M44.637931,469.5 L45.75,471.435 L46.862069,469.5 L44.637931,469.5 Z M669.287356,161.5 L668.212644,161.5 L668.75,162.435 L669.287356,161.5 Z M762.734707,107.59161 L760.756006,111.034549 L758.75,109.881672 L756.743994,111.034549 L754.765293,107.59161 L717.75,86.3184532 L674.743994,111.034549 L671.256006,104.965451 L712.75,81.1183285 L712.75,32 L717.724138,32 L714.256006,25.9654512 L757.756006,0.965451196 L760.612069,5.935 L761.743994,3.9654512 L803.75,28.1068342 L845.756006,3.9654512 L849.243994,10.0345488 L805.743994,35.0345488 L803.75,31.565 L802.75,33.305 L802.75,83.5 L798.787356,83.5 L800.243994,86.0345488 L762.734707,107.59161 Z M758.75,101.807984 L795.75,80.5436158 L795.75,32 L796.475892,32 L758.256006,10.0345488 L759.356822,8.11913038 L717.804108,32 L719.75,32 L719.75,81.695 L720.743994,79.9654512 L758.75,101.807984 Z M718.712644,83.5 L716.787356,83.5 L717.75,85.175 L718.712644,83.5 Z M179.287356,392.5 L178.212644,392.5 L178.75,393.435 L179.287356,392.5 Z" id="Combined-Shape"></path>
        </g>
        <path d="M210,369 C201.715729,369 195,362.284271 195,354 C195,345.715729 201.715729,339 210,339 C218.284271,339 225,345.715729 225,354 C225,362.284271 218.284271,369 210,369 Z M325,369 C316.715729,369 310,362.284271 310,354 C310,345.715729 316.715729,339 325,339 C333.284271,339 340,345.715729 340,354 C340,362.284271 333.284271,369 325,369 Z M378,373 C369.715729,373 363,366.284271 363,358 C363,349.715729 369.715729,343 378,343 C386.284271,343 393,349.715729 393,358 C393,366.284271 386.284271,373 378,373 Z M480,369 C471.715729,369 465,362.284271 465,354 C465,345.715729 471.715729,339 480,339 C488.284271,339 495,345.715729 495,354 C495,362.284271 488.284271,369 480,369 Z M526,343 C517.715729,343 511,336.284271 511,328 C511,319.715729 517.715729,313 526,313 C534.284271,313 541,319.715729 541,328 C541,336.284271 534.284271,343 526,343 Z M526,292 C517.715729,292 511,285.284271 511,277 C511,268.715729 517.715729,262 526,262 C534.284271,262 541,268.715729 541,277 C541,285.284271 534.284271,292 526,292 Z M571,373 C562.715729,373 556,366.284271 556,358 C556,349.715729 562.715729,343 571,343 C579.284271,343 586,349.715729 586,358 C586,366.284271 579.284271,373 571,373 Z M310,415 C301.715729,415 295,408.284271 295,400 C295,391.715729 301.715729,385 310,385 C318.284271,385 325,391.715729 325,400 C325,408.284271 318.284271,415 310,415 Z M210,423 C201.715729,423 195,416.284271 195,408 C195,399.715729 201.715729,393 210,393 C218.284271,393 225,399.715729 225,408 C225,416.284271 218.284271,423 210,423 Z M388,423 C379.715729,423 373,416.284271 373,408 C373,399.715729 379.715729,393 388,393 C396.284271,393 403,399.715729 403,408 C403,416.284271 396.284271,423 388,423 Z M480,423 C471.715729,423 465,416.284271 465,408 C465,399.715729 471.715729,393 480,393 C488.284271,393 495,399.715729 495,408 C495,416.284271 488.284271,423 480,423 Z M571,214 C562.715729,214 556,207.284271 556,199 C556,190.715729 562.715729,184 571,184 C579.284271,184 586,190.715729 586,199 C586,207.284271 579.284271,214 571,214 Z M657,214 C648.715729,214 642,207.284271 642,199 C642,190.715729 648.715729,184 657,184 C665.284271,184 672,190.715729 672,199 C672,207.284271 665.284271,214 657,214 Z M617,188 C608.715729,188 602,181.284271 602,173 C602,164.715729 608.715729,158 617,158 C625.284271,158 632,164.715729 632,173 C632,181.284271 625.284271,188 617,188 Z M571,268 C562.715729,268 556,261.284271 556,253 C556,244.715729 562.715729,238 571,238 C579.284271,238 586,244.715729 586,253 C586,261.284271 579.284271,268 571,268 Z M702,134 C693.715729,134 687,127.284271 687,119 C687,110.715729 693.715729,104 702,104 C710.284271,104 717,110.715729 717,119 C717,127.284271 710.284271,134 702,134 Z M617,134 C608.715729,134 602,127.284271 602,119 C602,110.715729 608.715729,104 617,104 C625.284271,104 632,110.715729 632,119 C632,127.284271 625.284271,134 617,134 Z M526,189 C517.715729,189 511,182.284271 511,174 C511,165.715729 517.715729,159 526,159 C534.284271,159 541,165.715729 541,174 C541,182.284271 534.284271,189 526,189 Z M748,108 C739.715729,108 733,101.284271 733,93 C733,84.7157288 739.715729,78 748,78 C756.284271,78 763,84.7157288 763,93 C763,101.284271 756.284271,108 748,108 Z M744,60 C735.715729,60 729,53.2842712 729,45 C729,36.7157288 735.715729,30 744,30 C752.284271,30 759,36.7157288 759,45 C759,53.2842712 752.284271,60 744,60 Z M790,34 C781.715729,34 775,27.2842712 775,19 C775,10.7157288 781.715729,4 790,4 C798.284271,4 805,10.7157288 805,19 C805,27.2842712 798.284271,34 790,34 Z M790,134 C781.715729,134 775,127.284271 775,119 C775,110.715729 781.715729,104 790,104 C798.284271,104 805,110.715729 805,119 C805,127.284271 798.284271,134 790,134 Z M836,108 C827.715729,108 821,101.284271 821,93 C821,84.7157288 827.715729,78 836,78 C844.284271,78 851,84.7157288 851,93 C851,101.284271 844.284271,108 836,108 Z M836,60 C827.715729,60 821,53.2842712 821,45 C821,36.7157288 827.715729,30 836,30 C844.284271,30 851,36.7157288 851,45 C851,53.2842712 844.284271,60 836,60 Z M884,30 C875.715729,30 869,23.2842712 869,15 C869,6.71572875 875.715729,0 884,0 C892.284271,0 899,6.71572875 899,15 C899,23.2842712 892.284271,30 884,30 Z M702,188 C693.715729,188 687,181.284271 687,173 C687,164.715729 693.715729,158 702,158 C710.284271,158 717,164.715729 717,173 C717,181.284271 710.284271,188 702,188 Z M748,215 C739.715729,215 733,208.284271 733,200 C733,191.715729 739.715729,185 748,185 C756.284271,185 763,191.715729 763,200 C763,208.284271 756.284271,215 748,215 Z M744,369 C735.715729,369 729,362.284271 729,354 C729,345.715729 735.715729,339 744,339 C752.284271,339 759,345.715729 759,354 C759,362.284271 752.284271,369 744,369 Z M840,369 C831.715729,369 825,362.284271 825,354 C825,345.715729 831.715729,339 840,339 C848.284271,339 855,345.715729 855,354 C855,362.284271 848.284271,369 840,369 Z M794,189 C785.715729,189 779,182.284271 779,174 C779,165.715729 785.715729,159 794,159 C802.284271,159 809,165.715729 809,174 C809,182.284271 802.284271,189 794,189 Z M840,215 C831.715729,215 825,208.284271 825,200 C825,191.715729 831.715729,185 840,185 C848.284271,185 855,191.715729 855,200 C855,208.284271 848.284271,215 840,215 Z M886,189 C877.715729,189 871,182.284271 871,174 C871,165.715729 877.715729,159 886,159 C894.284271,159 901,165.715729 901,174 C901,182.284271 894.284271,189 886,189 Z M748,269 C739.715729,269 733,262.284271 733,254 C733,245.715729 739.715729,239 748,239 C756.284271,239 763,245.715729 763,254 C763,262.284271 756.284271,269 748,269 Z M794,293 C785.715729,293 779,286.284271 779,278 C779,269.715729 785.715729,263 794,263 C802.284271,263 809,269.715729 809,278 C809,286.284271 802.284271,293 794,293 Z M886,293 C877.715729,293 871,286.284271 871,278 C871,269.715729 877.715729,263 886,263 C894.284271,263 901,269.715729 901,278 C901,286.284271 894.284271,293 886,293 Z M840,267 C831.715729,267 825,260.284271 825,252 C825,243.715729 831.715729,237 840,237 C848.284271,237 855,243.715729 855,252 C855,260.284271 848.284271,267 840,267 Z M794,347 C785.715729,347 779,340.284271 779,332 C779,323.715729 785.715729,317 794,317 C802.284271,317 809,323.715729 809,332 C809,340.284271 802.284271,347 794,347 Z M571,423 C562.715729,423 556,416.284271 556,408 C556,399.715729 562.715729,393 571,393 C579.284271,393 586,399.715729 586,408 C586,416.284271 579.284271,423 571,423 Z M210,529 C201.715729,529 195,522.284271 195,514 C195,505.715729 201.715729,499 210,499 C218.284271,499 225,505.715729 225,514 C225,522.284271 218.284271,529 210,529 Z M210,583 C201.715729,583 195,576.284271 195,568 C195,559.715729 201.715729,553 210,553 C218.284271,553 225,559.715729 225,568 C225,576.284271 218.284271,583 210,583 Z M300,529 C291.715729,529 285,522.284271 285,514 C285,505.715729 291.715729,499 300,499 C308.284271,499 315,505.715729 315,514 C315,522.284271 308.284271,529 300,529 Z M117,529 C108.715729,529 102,522.284271 102,514 C102,505.715729 108.715729,499 117,499 C125.284271,499 132,505.715729 132,514 C132,522.284271 125.284271,529 117,529 Z M30,529 C21.7157288,529 15,522.284271 15,514 C15,505.715729 21.7157288,499 30,499 C38.2842712,499 45,505.715729 45,514 C45,522.284271 38.2842712,529 30,529 Z M388,529 C379.715729,529 373,522.284271 373,514 C373,505.715729 379.715729,499 388,499 C396.284271,499 403,505.715729 403,514 C403,522.284271 396.284271,529 388,529 Z M571,529 C562.715729,529 556,522.284271 556,514 C556,505.715729 562.715729,499 571,499 C579.284271,499 586,505.715729 586,514 C586,522.284271 579.284271,529 571,529 Z M571,583 C562.715729,583 556,576.284271 556,568 C556,559.715729 562.715729,553 571,553 C579.284271,553 586,559.715729 586,568 C586,576.284271 579.284271,583 571,583 Z M830,529 C821.715729,529 815,522.284271 815,514 C815,505.715729 821.715729,499 830,499 C838.284271,499 845,505.715729 845,514 C845,522.284271 838.284271,529 830,529 Z M830,583 C821.715729,583 815,576.284271 815,568 C815,559.715729 821.715729,553 830,553 C838.284271,553 845,559.715729 845,568 C845,576.284271 838.284271,583 830,583 Z M657,423 C648.715729,423 642,416.284271 642,408 C642,399.715729 648.715729,393 657,393 C665.284271,393 672,399.715729 672,408 C672,416.284271 665.284271,423 657,423 Z M744,423 C735.715729,423 729,416.284271 729,408 C729,399.715729 735.715729,393 744,393 C752.284271,393 759,399.715729 759,408 C759,416.284271 752.284271,423 744,423 Z M256,449 C247.715729,449 241,442.284271 241,434 C241,425.715729 247.715729,419 256,419 C264.284271,419 271,425.715729 271,434 C271,442.284271 264.284271,449 256,449 Z M164,449 C155.715729,449 149,442.284271 149,434 C149,425.715729 155.715729,419 164,419 C172.284271,419 179,425.715729 179,434 C179,442.284271 172.284271,449 164,449 Z M78,449 C69.7157288,449 63,442.284271 63,434 C63,425.715729 69.7157288,419 78,419 C86.2842712,419 93,425.715729 93,434 C93,442.284271 86.2842712,449 78,449 Z M790,449 C781.715729,449 775,442.284271 775,434 C775,425.715729 781.715729,419 790,419 C798.284271,419 805,425.715729 805,434 C805,442.284271 798.284271,449 790,449 Z M698,449 C689.715729,449 683,442.284271 683,434 C683,425.715729 689.715729,419 698,419 C706.284271,419 713,425.715729 713,434 C713,442.284271 706.284271,449 698,449 Z M612,449 C603.715729,449 597,442.284271 597,434 C597,425.715729 603.715729,419 612,419 C620.284271,419 627,425.715729 627,434 C627,442.284271 620.284271,449 612,449 Z M526,449 C517.715729,449 511,442.284271 511,434 C511,425.715729 517.715729,419 526,419 C534.284271,419 541,425.715729 541,434 C541,442.284271 534.284271,449 526,449 Z M434,449 C425.715729,449 419,442.284271 419,434 C419,425.715729 425.715729,419 434,419 C442.284271,419 449,425.715729 449,434 C449,442.284271 442.284271,449 434,449 Z M348,449 C339.715729,449 333,442.284271 333,434 C333,425.715729 339.715729,419 348,419 C356.284271,419 363,425.715729 363,434 C363,442.284271 356.284271,449 348,449 Z M256,499 C247.715729,499 241,492.284271 241,484 C241,475.715729 247.715729,469 256,469 C264.284271,469 271,475.715729 271,484 C271,492.284271 264.284271,499 256,499 Z M164,499 C155.715729,499 149,492.284271 149,484 C149,475.715729 155.715729,469 164,469 C172.284271,469 179,475.715729 179,484 C179,492.284271 172.284271,499 164,499 Z M78,499 C69.7157288,499 63,492.284271 63,484 C63,475.715729 69.7157288,469 78,469 C86.2842712,469 93,475.715729 93,484 C93,492.284271 86.2842712,499 78,499 Z M790,499 C781.715729,499 775,492.284271 775,484 C775,475.715729 781.715729,469 790,469 C798.284271,469 805,475.715729 805,484 C805,492.284271 798.284271,499 790,499 Z M876,499 C867.715729,499 861,492.284271 861,484 C861,475.715729 867.715729,469 876,469 C884.284271,469 891,475.715729 891,484 C891,492.284271 884.284271,499 876,499 Z M698,499 C689.715729,499 683,492.284271 683,484 C683,475.715729 689.715729,469 698,469 C706.284271,469 713,475.715729 713,484 C713,492.284271 706.284271,499 698,499 Z M612,499 C603.715729,499 597,492.284271 597,484 C597,475.715729 603.715729,469 612,469 C620.284271,469 627,475.715729 627,484 C627,492.284271 620.284271,499 612,499 Z M526,499 C517.715729,499 511,492.284271 511,484 C511,475.715729 517.715729,469 526,469 C534.284271,469 541,475.715729 541,484 C541,492.284271 534.284271,499 526,499 Z M434,499 C425.715729,499 419,492.284271 419,484 C419,475.715729 425.715729,469 434,469 C442.284271,469 449,475.715729 449,484 C449,492.284271 442.284271,499 434,499 Z M348,499 C339.715729,499 333,492.284271 333,484 C333,475.715729 339.715729,469 348,469 C356.284271,469 363,475.715729 363,484 C363,492.284271 356.284271,499 348,499 Z" id="Combined-Shape" fill="#FFAFA2"></path>
    </g>
</svg>