<?xml version="1.0" encoding="UTF-8"?>
<svg width="390px" height="400px" viewBox="0 0 390 400" version="1.1" xmlns="http://www.w3.org/2000/svg" xmlns:xlink="http://www.w3.org/1999/xlink">
    <!-- Generator: Sketch 51.3 (57544) - http://www.bohemiancoding.com/sketch -->
    <title>seniors</title>
    <desc>Created with Sketch.</desc>
    <defs></defs>
    <g id="seniors" stroke="none" stroke-width="1" fill="none" fill-rule="evenodd">
        <path d="M305.693584,192.220355 C305.709897,192.551633 305.718149,192.885031 305.718149,193.220355 L305.718149,292.220355 C305.718149,303.26605 296.763844,312.220355 285.718149,312.220355 L119.101897,312.220355 C108.056202,312.220355 99.101897,303.26605 99.101897,292.220355 L99.101897,193.220355 C99.101897,192.885031 99.1101494,192.551633 99.1264621,192.220355 L73.000385,192.220355 C69.9534073,192.220355 67.0726652,190.831175 65.1754413,188.446932 C61.736598,184.125335 62.4522113,177.834255 66.7738084,174.395412 L196.490911,71.1750563 C200.135438,68.2749812 205.299538,68.2749812 208.944064,71.1750563 L338.661167,174.395412 C341.04541,176.292636 342.43459,179.173378 342.43459,182.220355 C342.43459,187.743203 337.957438,192.220355 332.43459,192.220355 L305.693584,192.220355 Z" id="Combined-Shape" stroke="#FFFFFF" stroke-width="15"></path>
        <path d="M203.32218,248.157656 L242.006729,210.365827 C251.179292,201.404939 251.350888,186.704874 242.39,177.532311 C242.362218,177.503874 242.334364,177.475507 242.306436,177.447212 L242.306436,177.447212 C233.116942,168.136803 218.246584,167.651175 208.46921,176.342175 L202.615169,181.545767 L199.313867,177.957396 C190.154514,168.001578 174.681249,167.292399 164.649608,176.368645 L164.649608,176.368645 C155.130116,184.98152 154.395156,199.680707 163.00803,209.2002 C163.267744,209.487252 163.534588,209.767771 163.808312,210.041495 L201.916268,248.149451 C202.303573,248.536756 202.93038,248.540414 203.32218,248.157656 Z" id="Path-59" fill="#FF8E75"></path>
    </g>
</svg>