<?xml version="1.0" encoding="UTF-8"?>
<svg width="512px" height="512px" viewBox="0 0 512 512" version="1.1" xmlns="http://www.w3.org/2000/svg" xmlns:xlink="http://www.w3.org/1999/xlink">
    <!-- Generator: Sketch 51.3 (57544) - http://www.bohemiancoding.com/sketch -->
    <title>single</title>
    <desc>Created with Sketch.</desc>
    <defs></defs>
    <g id="single" stroke="none" stroke-width="1" fill="none" fill-rule="evenodd">
        <path d="M223,142 C271.666667,151.333333 309,172.166667 335,204.5 C361,236.833333 375.666667,277 379,325" id="Path-64" stroke="#FFFFFF" stroke-width="10" stroke-linecap="round" stroke-linejoin="round" stroke-dasharray="18,20"></path>
        <rect id="Rectangle-14" fill="#F9F6F6" x="113" y="17" width="287" height="478" rx="49"></rect>
        <circle id="Oval" fill="#FFFFFF" cx="313" cy="438" r="33"></circle>
        <circle id="Oval" fill="#FFFFFF" cx="259" cy="47" r="21"></circle>
        <circle id="Oval" fill="#FFFFFF" cx="217" cy="438" r="33"></circle>
        <path d="M205.416667,425.5 L229.583333,451.5" id="Line" stroke="#3E3E53" stroke-width="7" stroke-linecap="round"></path>
        <path d="M205.416667,425.5 L229.583333,451.5" id="Line" stroke="#3E3E53" stroke-width="7" stroke-linecap="round" transform="translate(217.500000, 438.500000) scale(-1, 1) translate(-217.500000, -438.500000) "></path>
        <path d="M313.76692,455.526861 L328.655774,440.981596 C332.287365,437.43381 332.355304,431.613776 328.807518,427.982185 C328.796519,427.970926 328.785491,427.959695 328.774434,427.948492 L328.774434,427.948492 C325.136139,424.262325 319.248683,424.070056 315.377635,427.510987 L313.059909,429.571188 L311.752862,428.150484 C308.1265,424.208787 302.000341,423.928009 298.028625,427.521467 L298.028625,427.521467 C294.259677,430.931467 293.968693,436.751154 297.378693,440.520102 C297.481519,440.633751 297.587167,440.744814 297.69554,440.853187 L312.361009,455.518655 C312.748313,455.90596 313.375121,455.909618 313.76692,455.526861 Z" id="Path-59" fill="#FF8E75"></path>
        <rect id="Rectangle-15" fill="#3E3E53" x="130" y="82" width="253" height="303" rx="30"></rect>
        <path d="M157.77563,152.606718 C166.886198,186.055808 173.127654,211.853568 176.5,230 C179.847556,248.013041 182.892017,272.068295 185.633381,302.165761 L185.63338,302.165761 C186.034151,306.565825 189.925997,309.807893 194.326061,309.407123 C194.870697,309.357516 195.40881,309.252192 195.931959,309.092804 C227.792172,299.385918 253.148186,292.854984 272,289.5 C290.876082,286.140697 317.940047,283.347852 353.191897,281.121465 L353.191897,281.121463 C357.601388,280.842975 360.950228,277.042616 360.671739,272.633124 C360.630031,271.972726 360.506548,271.320055 360.304121,270.690064 C349.002857,235.518456 341.901484,207.955101 339,188 C336.282322,169.309032 335.897468,147.995796 337.845436,124.060292 L337.845432,124.060292 C338.203825,119.656576 334.924442,115.796124 330.520726,115.437732 C329.483799,115.353342 328.440366,115.472015 327.448873,115.787104 C299.845934,124.559085 272.862976,131.13005 246.5,135.5 C219.844838,139.918383 192.818515,142.253274 165.421033,142.504674 L165.421033,142.504674 C161.002941,142.545215 157.454234,146.159651 157.494774,150.577743 C157.501065,151.263308 157.595457,151.945222 157.77563,152.606718 Z" id="Path-65" fill="#E69C92"></path>
        <path d="M172.474,353.344 C172.474,354.297338 172.283335,355.158996 171.902,355.929 C171.520665,356.699004 171.033003,357.311331 170.439,357.766 C169.844997,358.220669 169.218003,358.568999 168.558,358.811 C167.897997,359.053001 167.260003,359.174 166.644,359.174 L163.894,359.174 L163.894,361.66 C163.894,361.997335 163.883,362.250332 163.861,362.419 C163.839,362.587668 163.769334,362.781999 163.652,363.002 C163.534666,363.222001 163.336668,363.376 163.058,363.464 C162.779332,363.552 162.405336,363.596 161.936,363.596 C161.554665,363.596 161.239335,363.559334 160.99,363.486 C160.740665,363.412666 160.550001,363.324667 160.418,363.222 C160.285999,363.119333 160.187,362.969001 160.121,362.771 C160.055,362.572999 160.018333,362.404334 160.011,362.265 C160.003667,362.125666 160,361.916668 160,361.638 L160,349.428 C160,349.090665 160.011,348.837668 160.033,348.669 C160.055,348.500332 160.124666,348.306001 160.242,348.086 C160.359334,347.865999 160.557332,347.712 160.836,347.624 C161.114668,347.536 161.488664,347.492 161.958,347.492 L166.666,347.492 C167.282003,347.492 167.91633,347.612999 168.569,347.855 C169.22167,348.097001 169.844997,348.445331 170.439,348.9 C171.033003,349.354669 171.520665,349.970663 171.902,350.748 C172.283335,351.525337 172.474,352.390662 172.474,353.344 Z M168.602,353.322 C168.602,352.69133 168.389335,352.211002 167.964,351.881 C167.538665,351.550998 167.098669,351.386 166.644,351.386 L163.894,351.386 L163.894,355.28 L166.666,355.28 C167.106002,355.28 167.538665,355.118668 167.964,354.796 C168.389335,354.473332 168.602,353.982003 168.602,353.322 Z M173.904,353.96 C173.904,353.622665 173.915,353.369668 173.937,353.201 C173.959,353.032332 174.024999,352.841668 174.135,352.629 C174.245001,352.416332 174.439332,352.266 174.718,352.178 C174.996668,352.09 175.370664,352.046 175.84,352.046 C176.206669,352.046 176.518332,352.082666 176.775,352.156 C177.031668,352.229334 177.222333,352.317333 177.347,352.42 C177.471667,352.522667 177.567,352.672999 177.633,352.871 C177.699,353.069001 177.735667,353.237666 177.743,353.377 C177.750333,353.516334 177.754,353.725332 177.754,354.004 L177.754,361.704 C177.754,362.041335 177.743,362.294332 177.721,362.463 C177.699,362.631668 177.633001,362.822332 177.523,363.035 C177.412999,363.247668 177.218668,363.398 176.94,363.486 C176.661332,363.574 176.287336,363.618 175.818,363.618 C175.363331,363.618 174.996668,363.574 174.718,363.486 C174.439332,363.398 174.245001,363.244001 174.135,363.024 C174.024999,362.803999 173.959,362.613334 173.937,362.452 C173.915,362.290666 173.904,362.034002 173.904,361.682 L173.904,353.96 Z M175.818,350.462 C175.363331,350.462 174.996668,350.418 174.718,350.33 C174.439332,350.242 174.245001,350.088001 174.135,349.868 C174.024999,349.647999 173.959,349.453668 173.937,349.285 C173.915,349.116332 173.904,348.863335 173.904,348.526 C173.904,348.188665 173.915,347.935668 173.937,347.767 C173.959,347.598332 174.024999,347.407668 174.135,347.195 C174.245001,346.982332 174.439332,346.832 174.718,346.744 C174.996668,346.656 175.370664,346.612 175.84,346.612 C176.294669,346.612 176.661332,346.656 176.94,346.744 C177.218668,346.832 177.412999,346.985999 177.523,347.206 C177.633001,347.426001 177.699,347.620332 177.721,347.789 C177.743,347.957668 177.754,348.210665 177.754,348.548 C177.754,348.885335 177.743,349.138332 177.721,349.307 C177.699,349.475668 177.633001,349.666332 177.523,349.879 C177.412999,350.091668 177.218668,350.242 176.94,350.33 C176.661332,350.418 176.287336,350.462 175.818,350.462 Z M183.562,359.724 C184.046002,359.724 184.405332,359.848665 184.64,360.098 C184.874668,360.347335 184.992,360.867996 184.992,361.66 C184.992,362.42267 184.867335,362.932332 184.618,363.189 C184.368665,363.445668 184.009336,363.574 183.54,363.574 C182.058659,363.574 181.017336,363.218337 180.416,362.507 C179.814664,361.795663 179.514,360.611342 179.514,358.954 L179.514,348.46 C179.514,348.122665 179.525,347.869668 179.547,347.701 C179.569,347.532332 179.634999,347.341668 179.745,347.129 C179.855001,346.916332 180.049332,346.766 180.328,346.678 C180.606668,346.59 180.980664,346.546 181.45,346.546 C181.904669,346.546 182.267665,346.593666 182.539,346.689 C182.810335,346.784334 183.004666,346.938332 183.122,347.151 C183.239334,347.363668 183.309,347.554332 183.331,347.723 C183.353,347.891668 183.364,348.144665 183.364,348.482 L183.364,359.042 C183.364,359.496669 183.429999,359.724 183.562,359.724 Z M190.162,359.724 C190.79267,359.724 191.269332,359.848665 191.592,360.098 C191.914668,360.347335 192.076,360.867996 192.076,361.66 C192.076,362.42267 191.903668,362.932332 191.559,363.189 C191.214332,363.445668 190.734003,363.574 190.118,363.574 C187.008651,363.574 185.454,362.034015 185.454,358.954 L185.432,348.46 C185.432,348.122665 185.443,347.869668 185.465,347.701 C185.487,347.532332 185.556666,347.341668 185.674,347.129 C185.791334,346.916332 185.989332,346.766 186.268,346.678 C186.546668,346.59 186.920664,346.546 187.39,346.546 C187.844669,346.546 188.207665,346.593666 188.479,346.689 C188.750335,346.784334 188.940999,346.938332 189.051,347.151 C189.161001,347.363668 189.230667,347.557999 189.26,347.734 C189.289333,347.910001 189.304,348.159332 189.304,348.482 L189.304,359.042 C189.304,359.320668 189.362666,359.504 189.48,359.592 C189.597334,359.68 189.824665,359.724 190.162,359.724 Z M198.984,351.76 C200.597341,351.76 202.012661,352.328328 203.23,353.465 C204.447339,354.601672 205.056,356.049991 205.056,357.81 C205.056,359.027339 204.74067,360.108995 204.11,361.055 C203.47933,362.001005 202.713005,362.697664 201.811,363.145 C200.908995,363.592336 199.981338,363.816 199.028,363.816 C198.045328,363.816 197.099338,363.577669 196.19,363.101 C195.280662,362.624331 194.514336,361.920338 193.891,360.989 C193.267664,360.057662 192.956,359.005339 192.956,357.832 C192.956,356.071991 193.571994,354.620006 194.804,353.476 C196.036006,352.331994 197.429326,351.76 198.984,351.76 Z M198.984,359.944 C199.468002,359.944 199.951998,359.760669 200.436,359.394 C200.920002,359.027332 201.162,358.48467 201.162,357.766 C201.162,357.04733 200.934669,356.512002 200.48,356.16 C200.025331,355.807998 199.519336,355.632 198.962,355.632 C198.463331,355.632 197.986669,355.815332 197.532,356.182 C197.077331,356.548669 196.85,357.083996 196.85,357.788 C196.85,358.50667 197.084664,359.045665 197.554,359.405 C198.023336,359.764335 198.499998,359.944 198.984,359.944 Z M221.314,352.112 C222.252671,352.522669 222.722,353.028664 222.722,353.63 C222.722,353.879335 222.656001,354.150665 222.524,354.444 C222.186665,355.250671 221.937334,355.859331 221.776,356.27 L219.356,362.166 L219.301,362.331 C219.279,362.397 219.216667,362.517999 219.114,362.694 C219.011333,362.870001 218.897667,363.023999 218.773,363.156 C218.648333,363.288001 218.476001,363.408999 218.256,363.519 C218.035999,363.629001 217.794001,363.684 217.53,363.684 C217.119331,363.684 216.756335,363.555668 216.441,363.299 C216.125665,363.042332 215.916667,362.782001 215.814,362.518 L215.638,362.144 C215.55,361.923999 215.322669,361.326338 214.956,360.351 C214.589332,359.375662 214.384,358.829334 214.34,358.712 C214.193333,359.064002 213.977001,359.639663 213.691,360.439 C213.404999,361.238337 213.188667,361.813998 213.042,362.166 L212.987,362.331 C212.965,362.397 212.902667,362.517999 212.8,362.694 C212.697333,362.870001 212.580001,363.023999 212.448,363.156 C212.315999,363.288001 212.136334,363.408999 211.909,363.519 C211.681666,363.629001 211.436001,363.684 211.172,363.684 C210.761331,363.684 210.402002,363.555668 210.094,363.299 C209.785998,363.042332 209.580667,362.782001 209.478,362.518 L209.302,362.144 L206.156,354.422 C206.009333,353.981998 205.936,353.696001 205.936,353.564 C205.936,352.97733 206.353996,352.515335 207.19,352.178 C207.659336,351.987332 208.055332,351.892 208.378,351.892 C208.642001,351.892 208.865666,351.954333 209.049,352.079 C209.232334,352.203667 209.360666,352.328333 209.434,352.453 C209.507334,352.577667 209.588,352.742666 209.676,352.948 C209.690667,352.992 209.928998,353.63366 210.391,354.873 C210.853002,356.11234 211.113333,356.812666 211.172,356.974 L212.47,353.41 C212.484667,353.366 212.506667,353.314667 212.536,353.256 C212.565333,353.197333 212.634999,353.087334 212.745,352.926 C212.855001,352.764666 212.972333,352.621667 213.097,352.497 C213.221667,352.372333 213.393999,352.258667 213.614,352.156 C213.834001,352.053333 214.061332,352.002 214.296,352.002 C214.706669,352.002 215.069665,352.119332 215.385,352.354 C215.700335,352.588668 215.916666,352.823332 216.034,353.058 L216.21,353.432 C216.943337,355.485344 217.375999,356.658665 217.508,356.952 L218.85,353.3 C219.202002,352.361329 219.729996,351.892 220.434,351.892 C220.712668,351.892 221.005998,351.965333 221.314,352.112 Z" id="Pillow" fill="#FFFFFF"></path>
        <path d="M245.362,362.362 L238.054,362.362 C238.018,362.146 238,361.93 238,361.696 C238,357.052 243.67,355.432 243.67,352.732 C243.67,351.724 242.842,350.986 241.672,350.986 C240.664,350.986 239.854,351.418 239.134,352.084 L238.234,350.986 C239.188,350.122 240.322,349.546 241.852,349.546 C243.976,349.546 245.38,350.896 245.38,352.624 C245.38,356.098 240.214,357.7 239.818,360.886 L245.362,360.886 L245.362,362.362 Z M256.918,359.68 L255.424,359.68 L255.424,362.362 L253.804,362.362 L253.804,359.68 L248.422,359.68 L248.422,358.384 L252.184,349.636 L253.588,350.23 L250.186,358.204 L253.804,358.204 L253.804,354.622 L255.424,354.622 L255.424,358.204 L256.918,358.204 L256.918,359.68 Z" id="24" fill="#FFFFFF"></path>
        <path d="M258.402334,34 C262.822809,35.6539532 263.887945,35.1990993 266.210102,40.3278798 C267.204776,42.5247461 267.686797,44.9547637 267.937818,47.3532189 C269.621266,63.4381846 245.098488,57.8159815 250.886059,45.3163072 C253.865746,38.8809453 255.645834,51.3451192 258.035312,44.8890986 C258.65014,43.2279236 259.097376,41.4817621 259.257931,39.7177504 C259.401704,38.1381332 259.04472,36.5526304 258.938115,34.9700703 L258.402334,34 Z" id="Path-66" fill="#F58D76"></path>
        <path d="M360.629609,42.6183253 C353.049673,42.6183253 345.040193,41.8488457 338.038445,46.0491585 C331.682854,49.8618454 328.973263,61.91612 336.799856,65.45178 C342.771547,68.1494887 349.180291,68.1494887 356.02609,65.45178 C354.524147,69.3429837 357.673924,70.9104416 365.475419,70.1541536 C366.954973,70.0107235 359.864509,68.1517333 360.629609,65.45178 C361.394709,62.7518267 368.464897,60.6033734 368.964402,57.8419206 C369.524617,54.7448348 368.706234,51.4660311 367.6948,48.4856315 C367.068864,46.6411848 365.902466,44.7488944 364.200002,43.8026412 C361.761276,42.4471632 358.750727,42.6008804 356.02609,42" id="Path-67" fill="#EEE7E8"></path>
        <circle id="Oval-5" fill="#F58D76" cx="363.5" cy="41.5" r="5.5"></circle>
        <circle id="Oval-6" fill="#EEE7E8" cx="161.5" cy="41.5" r="8.5"></circle>
        <path d="M150,58.25 L150,68.5 L172.5,68.5 L172.5,58.25 C172.5,52.0367966 167.463203,47 161.25,47 L161.25,47 C155.036797,47 150,52.0367966 150,58.25 Z" id="Path-68" fill="#EEE7E8"></path>
    </g>
</svg>