<?xml version="1.0" encoding="UTF-8"?>
<svg width="512px" height="512px" viewBox="0 0 512 512" version="1.1" xmlns="http://www.w3.org/2000/svg" xmlns:xlink="http://www.w3.org/1999/xlink">
    <!-- Generator: Sketch 51.3 (57544) - http://www.bohemiancoding.com/sketch -->
    <title>single</title>
    <desc>Created with Sketch.</desc>
    <defs></defs>
    <g id="single" stroke="none" stroke-width="1" fill="none" fill-rule="evenodd">
        <path d="M223,142 C271.666667,151.333333 309,172.166667 335,204.5 C361,236.833333 375.666667,277 379,325" id="Path-64" stroke="#FFFFFF" stroke-width="10" stroke-linecap="round" stroke-linejoin="round" stroke-dasharray="18,20"></path>
        <rect id="Rectangle-14" fill="#F9F6F6" x="113" y="17" width="287" height="478" rx="49"></rect>
        <circle id="Oval" fill="#FFFFFF" cx="259" cy="47" r="21"></circle>
        <g id="Group" transform="translate(175.000000, 405.000000)">
            <circle id="Oval" fill="#FFFFFF" cx="129" cy="33" r="33"></circle>
            <circle id="Oval" fill="#FFFFFF" cx="33" cy="33" r="33"></circle>
            <path d="M21.4166667,20.5 L45.5833333,46.5" id="Line" stroke="#3E3E53" stroke-width="7" stroke-linecap="round"></path>
            <path d="M21.4166667,20.5 L45.5833333,46.5" id="Line" stroke="#3E3E53" stroke-width="7" stroke-linecap="round" transform="translate(33.500000, 33.500000) scale(-1, 1) translate(-33.500000, -33.500000) "></path>
            <path d="M129.76692,50.5268606 L144.655774,35.9815956 C148.287365,32.4338104 148.355304,26.6137759 144.807518,22.9821847 C144.796519,22.9709257 144.785491,22.9596949 144.774434,22.9484924 L144.774434,22.9484924 C141.136139,19.2623251 135.248683,19.0700559 131.377635,22.5109873 L129.059909,24.5711879 L127.752862,23.1504839 C124.1265,19.2087867 118.000341,18.9280093 114.028625,22.5214673 L114.028625,22.5214673 C110.259677,25.9314674 109.968693,31.7511542 113.378693,35.5201016 C113.481519,35.6337509 113.587167,35.7448139 113.69554,35.8531865 L128.361009,50.5186552 C128.748313,50.9059601 129.375121,50.9096184 129.76692,50.5268606 Z" id="Path-59" fill="#FF8E75"></path>
        </g>
        <rect id="Rectangle-15" fill="#3E3E53" x="130" y="82" width="253" height="303" rx="19"></rect>
        <path d="M157.77563,152.606718 C166.886198,186.055808 173.127654,211.853568 176.5,230 C179.847556,248.013041 182.892017,272.068295 185.633381,302.165761 L185.63338,302.165761 C186.034151,306.565825 189.925997,309.807893 194.326061,309.407123 C194.870697,309.357516 195.40881,309.252192 195.931959,309.092804 C227.792172,299.385918 253.148186,292.854984 272,289.5 C290.876082,286.140697 317.940047,283.347852 353.191897,281.121465 L353.191897,281.121463 C357.601388,280.842975 360.950228,277.042616 360.671739,272.633124 C360.630031,271.972726 360.506548,271.320055 360.304121,270.690064 C349.002857,235.518456 341.901484,207.955101 339,188 C336.282322,169.309032 335.897468,147.995796 337.845436,124.060292 L337.845432,124.060292 C338.203825,119.656576 334.924442,115.796124 330.520726,115.437732 C329.483799,115.353342 328.440366,115.472015 327.448873,115.787104 C299.845934,124.559085 272.862976,131.13005 246.5,135.5 C219.844838,139.918383 192.818515,142.253274 165.421033,142.504674 L165.421033,142.504674 C161.002941,142.545215 157.454234,146.159651 157.494774,150.577743 C157.501065,151.263308 157.595457,151.945222 157.77563,152.606718 Z" id="Path-65" fill="#E69C92"></path>
        <path d="M164.474,353.344 C164.474,354.297338 164.283335,355.158996 163.902,355.929 C163.520665,356.699004 163.033003,357.311331 162.439,357.766 C161.844997,358.220669 161.218003,358.568999 160.558,358.811 C159.897997,359.053001 159.260003,359.174 158.644,359.174 L155.894,359.174 L155.894,361.66 C155.894,361.997335 155.883,362.250332 155.861,362.419 C155.839,362.587668 155.769334,362.781999 155.652,363.002 C155.534666,363.222001 155.336668,363.376 155.058,363.464 C154.779332,363.552 154.405336,363.596 153.936,363.596 C153.554665,363.596 153.239335,363.559334 152.99,363.486 C152.740665,363.412666 152.550001,363.324667 152.418,363.222 C152.285999,363.119333 152.187,362.969001 152.121,362.771 C152.055,362.572999 152.018333,362.404334 152.011,362.265 C152.003667,362.125666 152,361.916668 152,361.638 L152,349.428 C152,349.090665 152.011,348.837668 152.033,348.669 C152.055,348.500332 152.124666,348.306001 152.242,348.086 C152.359334,347.865999 152.557332,347.712 152.836,347.624 C153.114668,347.536 153.488664,347.492 153.958,347.492 L158.666,347.492 C159.282003,347.492 159.91633,347.612999 160.569,347.855 C161.22167,348.097001 161.844997,348.445331 162.439,348.9 C163.033003,349.354669 163.520665,349.970663 163.902,350.748 C164.283335,351.525337 164.474,352.390662 164.474,353.344 Z M160.602,353.322 C160.602,352.69133 160.389335,352.211002 159.964,351.881 C159.538665,351.550998 159.098669,351.386 158.644,351.386 L155.894,351.386 L155.894,355.28 L158.666,355.28 C159.106002,355.28 159.538665,355.118668 159.964,354.796 C160.389335,354.473332 160.602,353.982003 160.602,353.322 Z M165.904,353.96 C165.904,353.622665 165.915,353.369668 165.937,353.201 C165.959,353.032332 166.024999,352.841668 166.135,352.629 C166.245001,352.416332 166.439332,352.266 166.718,352.178 C166.996668,352.09 167.370664,352.046 167.84,352.046 C168.206669,352.046 168.518332,352.082666 168.775,352.156 C169.031668,352.229334 169.222333,352.317333 169.347,352.42 C169.471667,352.522667 169.567,352.672999 169.633,352.871 C169.699,353.069001 169.735667,353.237666 169.743,353.377 C169.750333,353.516334 169.754,353.725332 169.754,354.004 L169.754,361.704 C169.754,362.041335 169.743,362.294332 169.721,362.463 C169.699,362.631668 169.633001,362.822332 169.523,363.035 C169.412999,363.247668 169.218668,363.398 168.94,363.486 C168.661332,363.574 168.287336,363.618 167.818,363.618 C167.363331,363.618 166.996668,363.574 166.718,363.486 C166.439332,363.398 166.245001,363.244001 166.135,363.024 C166.024999,362.803999 165.959,362.613334 165.937,362.452 C165.915,362.290666 165.904,362.034002 165.904,361.682 L165.904,353.96 Z M167.818,350.462 C167.363331,350.462 166.996668,350.418 166.718,350.33 C166.439332,350.242 166.245001,350.088001 166.135,349.868 C166.024999,349.647999 165.959,349.453668 165.937,349.285 C165.915,349.116332 165.904,348.863335 165.904,348.526 C165.904,348.188665 165.915,347.935668 165.937,347.767 C165.959,347.598332 166.024999,347.407668 166.135,347.195 C166.245001,346.982332 166.439332,346.832 166.718,346.744 C166.996668,346.656 167.370664,346.612 167.84,346.612 C168.294669,346.612 168.661332,346.656 168.94,346.744 C169.218668,346.832 169.412999,346.985999 169.523,347.206 C169.633001,347.426001 169.699,347.620332 169.721,347.789 C169.743,347.957668 169.754,348.210665 169.754,348.548 C169.754,348.885335 169.743,349.138332 169.721,349.307 C169.699,349.475668 169.633001,349.666332 169.523,349.879 C169.412999,350.091668 169.218668,350.242 168.94,350.33 C168.661332,350.418 168.287336,350.462 167.818,350.462 Z M175.562,359.724 C176.046002,359.724 176.405332,359.848665 176.64,360.098 C176.874668,360.347335 176.992,360.867996 176.992,361.66 C176.992,362.42267 176.867335,362.932332 176.618,363.189 C176.368665,363.445668 176.009336,363.574 175.54,363.574 C174.058659,363.574 173.017336,363.218337 172.416,362.507 C171.814664,361.795663 171.514,360.611342 171.514,358.954 L171.514,348.46 C171.514,348.122665 171.525,347.869668 171.547,347.701 C171.569,347.532332 171.634999,347.341668 171.745,347.129 C171.855001,346.916332 172.049332,346.766 172.328,346.678 C172.606668,346.59 172.980664,346.546 173.45,346.546 C173.904669,346.546 174.267665,346.593666 174.539,346.689 C174.810335,346.784334 175.004666,346.938332 175.122,347.151 C175.239334,347.363668 175.309,347.554332 175.331,347.723 C175.353,347.891668 175.364,348.144665 175.364,348.482 L175.364,359.042 C175.364,359.496669 175.429999,359.724 175.562,359.724 Z M182.162,359.724 C182.79267,359.724 183.269332,359.848665 183.592,360.098 C183.914668,360.347335 184.076,360.867996 184.076,361.66 C184.076,362.42267 183.903668,362.932332 183.559,363.189 C183.214332,363.445668 182.734003,363.574 182.118,363.574 C179.008651,363.574 177.454,362.034015 177.454,358.954 L177.432,348.46 C177.432,348.122665 177.443,347.869668 177.465,347.701 C177.487,347.532332 177.556666,347.341668 177.674,347.129 C177.791334,346.916332 177.989332,346.766 178.268,346.678 C178.546668,346.59 178.920664,346.546 179.39,346.546 C179.844669,346.546 180.207665,346.593666 180.479,346.689 C180.750335,346.784334 180.940999,346.938332 181.051,347.151 C181.161001,347.363668 181.230667,347.557999 181.26,347.734 C181.289333,347.910001 181.304,348.159332 181.304,348.482 L181.304,359.042 C181.304,359.320668 181.362666,359.504 181.48,359.592 C181.597334,359.68 181.824665,359.724 182.162,359.724 Z M190.984,351.76 C192.597341,351.76 194.012661,352.328328 195.23,353.465 C196.447339,354.601672 197.056,356.049991 197.056,357.81 C197.056,359.027339 196.74067,360.108995 196.11,361.055 C195.47933,362.001005 194.713005,362.697664 193.811,363.145 C192.908995,363.592336 191.981338,363.816 191.028,363.816 C190.045328,363.816 189.099338,363.577669 188.19,363.101 C187.280662,362.624331 186.514336,361.920338 185.891,360.989 C185.267664,360.057662 184.956,359.005339 184.956,357.832 C184.956,356.071991 185.571994,354.620006 186.804,353.476 C188.036006,352.331994 189.429326,351.76 190.984,351.76 Z M190.984,359.944 C191.468002,359.944 191.951998,359.760669 192.436,359.394 C192.920002,359.027332 193.162,358.48467 193.162,357.766 C193.162,357.04733 192.934669,356.512002 192.48,356.16 C192.025331,355.807998 191.519336,355.632 190.962,355.632 C190.463331,355.632 189.986669,355.815332 189.532,356.182 C189.077331,356.548669 188.85,357.083996 188.85,357.788 C188.85,358.50667 189.084664,359.045665 189.554,359.405 C190.023336,359.764335 190.499998,359.944 190.984,359.944 Z M213.314,352.112 C214.252671,352.522669 214.722,353.028664 214.722,353.63 C214.722,353.879335 214.656001,354.150665 214.524,354.444 C214.186665,355.250671 213.937334,355.859331 213.776,356.27 L211.356,362.166 L211.301,362.331 C211.279,362.397 211.216667,362.517999 211.114,362.694 C211.011333,362.870001 210.897667,363.023999 210.773,363.156 C210.648333,363.288001 210.476001,363.408999 210.256,363.519 C210.035999,363.629001 209.794001,363.684 209.53,363.684 C209.119331,363.684 208.756335,363.555668 208.441,363.299 C208.125665,363.042332 207.916667,362.782001 207.814,362.518 L207.638,362.144 C207.55,361.923999 207.322669,361.326338 206.956,360.351 C206.589332,359.375662 206.384,358.829334 206.34,358.712 C206.193333,359.064002 205.977001,359.639663 205.691,360.439 C205.404999,361.238337 205.188667,361.813998 205.042,362.166 L204.987,362.331 C204.965,362.397 204.902667,362.517999 204.8,362.694 C204.697333,362.870001 204.580001,363.023999 204.448,363.156 C204.315999,363.288001 204.136334,363.408999 203.909,363.519 C203.681666,363.629001 203.436001,363.684 203.172,363.684 C202.761331,363.684 202.402002,363.555668 202.094,363.299 C201.785998,363.042332 201.580667,362.782001 201.478,362.518 L201.302,362.144 L198.156,354.422 C198.009333,353.981998 197.936,353.696001 197.936,353.564 C197.936,352.97733 198.353996,352.515335 199.19,352.178 C199.659336,351.987332 200.055332,351.892 200.378,351.892 C200.642001,351.892 200.865666,351.954333 201.049,352.079 C201.232334,352.203667 201.360666,352.328333 201.434,352.453 C201.507334,352.577667 201.588,352.742666 201.676,352.948 C201.690667,352.992 201.928998,353.63366 202.391,354.873 C202.853002,356.11234 203.113333,356.812666 203.172,356.974 L204.47,353.41 C204.484667,353.366 204.506667,353.314667 204.536,353.256 C204.565333,353.197333 204.634999,353.087334 204.745,352.926 C204.855001,352.764666 204.972333,352.621667 205.097,352.497 C205.221667,352.372333 205.393999,352.258667 205.614,352.156 C205.834001,352.053333 206.061332,352.002 206.296,352.002 C206.706669,352.002 207.069665,352.119332 207.385,352.354 C207.700335,352.588668 207.916666,352.823332 208.034,353.058 L208.21,353.432 C208.943337,355.485344 209.375999,356.658665 209.508,356.952 L210.85,353.3 C211.202002,352.361329 211.729996,351.892 212.434,351.892 C212.712668,351.892 213.005998,351.965333 213.314,352.112 Z" id="Pillow" fill="#FFFFFF"></path>
        <path d="M237.362,362.362 L230.054,362.362 C230.018,362.146 230,361.93 230,361.696 C230,357.052 235.67,355.432 235.67,352.732 C235.67,351.724 234.842,350.986 233.672,350.986 C232.664,350.986 231.854,351.418 231.134,352.084 L230.234,350.986 C231.188,350.122 232.322,349.546 233.852,349.546 C235.976,349.546 237.38,350.896 237.38,352.624 C237.38,356.098 232.214,357.7 231.818,360.886 L237.362,360.886 L237.362,362.362 Z M248.918,359.68 L247.424,359.68 L247.424,362.362 L245.804,362.362 L245.804,359.68 L240.422,359.68 L240.422,358.384 L244.184,349.636 L245.588,350.23 L242.186,358.204 L245.804,358.204 L245.804,354.622 L247.424,354.622 L247.424,358.204 L248.918,358.204 L248.918,359.68 Z" id="24" fill="#FFFFFF"></path>
        <path d="M258.402334,34 C262.822809,35.6539532 263.887945,35.1990993 266.210102,40.3278798 C267.204776,42.5247461 267.686797,44.9547637 267.937818,47.3532189 C269.621266,63.4381846 245.098488,57.8159815 250.886059,45.3163072 C253.865746,38.8809453 255.645834,51.3451192 258.035312,44.8890986 C258.65014,43.2279236 259.097376,41.4817621 259.257931,39.7177504 C259.401704,38.1381332 259.04472,36.5526304 258.938115,34.9700703 L258.402334,34 Z" id="Path-66" fill="#F58D76"></path>
        <path d="M360.629609,42.6183253 C353.049673,42.6183253 345.040193,41.8488457 338.038445,46.0491585 C331.682854,49.8618454 328.973263,61.91612 336.799856,65.45178 C342.771547,68.1494887 349.180291,68.1494887 356.02609,65.45178 C354.524147,69.3429837 357.673924,70.9104416 365.475419,70.1541536 C366.954973,70.0107235 359.864509,68.1517333 360.629609,65.45178 C361.394709,62.7518267 368.464897,60.6033734 368.964402,57.8419206 C369.524617,54.7448348 368.706234,51.4660311 367.6948,48.4856315 C367.068864,46.6411848 365.902466,44.7488944 364.200002,43.8026412 C361.761276,42.4471632 358.750727,42.6008804 356.02609,42" id="Path-67" fill="#EEE7E8"></path>
        <circle id="Oval-5" fill="#F58D76" cx="363.5" cy="41.5" r="5.5"></circle>
        <circle id="Oval-6" fill="#EEE7E8" cx="161.5" cy="41.5" r="8.5"></circle>
        <path d="M150,58.25 L150,68.5 L172.5,68.5 L172.5,58.25 C172.5,52.0367966 167.463203,47 161.25,47 L161.25,47 C155.036797,47 150,52.0367966 150,58.25 Z" id="Path-68" fill="#EEE7E8"></path>
    </g>
</svg>