<?xml version="1.0" encoding="UTF-8"?>
<svg width="373px" height="254px" viewBox="0 0 373 254" version="1.1" xmlns="http://www.w3.org/2000/svg" xmlns:xlink="http://www.w3.org/1999/xlink">
    <!-- Generator: Sketch 51.3 (57544) - http://www.bohemiancoding.com/sketch -->
    <title>skin1</title>
    <desc>Created with Sketch.</desc>
    <defs></defs>
    <g id="skin1" stroke="none" stroke-width="1" fill="none" fill-rule="evenodd">
        <g id="Group" transform="translate(0.000000, 68.000000)">
            <path d="M67,86.6923077 C69.4615385,87.1025641 71.3076923,87.1025641 72.5384615,86.6923077 C74.3846154,86.0769231 75.3461538,83 79,83 C82.6538462,83 83,85.4615385 84.2307692,86.0769231 C85.0512821,86.4871795 87.3076923,86.6923077 91,86.6923077" id="Path-8" stroke="#E38E80"></path>
            <path d="M107,106.692308 C109.461538,107.102564 111.307692,107.102564 112.538462,106.692308 C114.384615,106.076923 115.346154,103 119,103 C122.653846,103 123,105.461538 124.230769,106.076923 C125.051282,106.487179 127.307692,106.692308 131,106.692308" id="Path-8" stroke="#E38E80"></path>
            <path d="M131,67.6923077 C133.461538,68.1025641 135.307692,68.1025641 136.538462,67.6923077 C138.384615,67.0769231 139.346154,64 143,64 C146.653846,64 147,66.4615385 148.230769,67.0769231 C149.051282,67.4871795 151.307692,67.6923077 155,67.6923077" id="Path-8" stroke="#E38E80"></path>
            <path d="M171,51.6923077 C173.461538,52.1025641 175.307692,52.1025641 176.538462,51.6923077 C178.384615,51.0769231 179.346154,48 183,48 C186.653846,48 187,50.4615385 188.230769,51.0769231 C189.051282,51.4871795 191.307692,51.6923077 195,51.6923077" id="Path-8" stroke="#E38E80"></path>
            <path d="M199,75.6923077 C201.461538,76.1025641 203.307692,76.1025641 204.538462,75.6923077 C206.384615,75.0769231 207.346154,72 211,72 C214.653846,72 215,74.4615385 216.230769,75.0769231 C217.051282,75.4871795 219.307692,75.6923077 223,75.6923077" id="Path-8" stroke="#E38E80"></path>
            <path d="M152,106.692308 C154.461538,107.102564 156.307692,107.102564 157.538462,106.692308 C159.384615,106.076923 160.346154,103 164,103 C167.653846,103 168,105.461538 169.230769,106.076923 C170.051282,106.487179 172.307692,106.692308 176,106.692308" id="Path-8" stroke="#E38E80"></path>
            <path d="M173,129.692308 C175.461538,130.102564 177.307692,130.102564 178.538462,129.692308 C180.384615,129.076923 181.346154,126 185,126 C188.653846,126 189,128.461538 190.230769,129.076923 C191.051282,129.487179 193.307692,129.692308 197,129.692308" id="Path-8" stroke="#E38E80"></path>
            <path d="M214,119.692308 C216.461538,120.102564 218.307692,120.102564 219.538462,119.692308 C221.384615,119.076923 222.346154,116 226,116 C229.653846,116 230,118.461538 231.230769,119.076923 C232.051282,119.487179 234.307692,119.692308 238,119.692308" id="Path-8" stroke="#E38E80"></path>
            <path d="M240,77.6923077 C242.461538,78.1025641 244.307692,78.1025641 245.538462,77.6923077 C247.384615,77.0769231 248.346154,74 252,74 C255.653846,74 256,76.4615385 257.230769,77.0769231 C258.051282,77.4871795 260.307692,77.6923077 264,77.6923077" id="Path-8" stroke="#E38E80"></path>
            <path d="M165.5,104.863014 C165.015742,106.287671 164.151008,107 162.905799,107 C161.660589,107 161.014856,106.287671 160.9686,104.863014 C159.677133,97.0273973 159.677133,90.4383562 160.9686,85.0958904 C162.260066,79.7534247 165.603866,69.7214612 171,55 C165.603866,71.6210046 163.06719,83.7305936 163.389972,91.3287671 C163.712754,98.9269406 164.416097,103.438356 165.5,104.863014 Z" id="Path-5" fill="#E38E80"></path>
            <path d="M214.5,73.8630137 C214.015742,75.2876712 213.151008,76 211.905799,76 C210.660589,76 210.014856,75.2876712 209.9686,73.8630137 C208.677133,66.0273973 208.677133,59.4383562 209.9686,54.0958904 C211.260066,48.7534247 214.603866,38.7214612 220,24 C214.603866,40.6210046 212.06719,52.7305936 212.389972,60.3287671 C212.712754,67.9269406 213.416097,72.4383562 214.5,73.8630137 Z" id="Path-5" fill="#E38E80"></path>
            <path d="M228.5,117.863014 C228.015742,119.287671 227.151008,120 225.905799,120 C224.660589,120 224.014856,119.287671 223.9686,117.863014 C222.677133,110.027397 222.677133,103.438356 223.9686,98.0958904 C225.260066,92.7534247 228.603866,82.7214612 234,68 C228.603866,84.6210046 226.06719,96.7305936 226.389972,104.328767 C226.712754,111.926941 227.416097,116.438356 228.5,117.863014 Z" id="Path-5" fill="#E38E80"></path>
            <path d="M120.5,104.863014 C120.015742,106.287671 119.151008,107 117.905799,107 C116.660589,107 116.014856,106.287671 115.9686,104.863014 C114.677133,97.0273973 114.677133,90.4383562 115.9686,85.0958904 C117.260066,79.7534247 120.603866,69.7214612 126,55 C120.603866,71.6210046 118.06719,83.7305936 118.389972,91.3287671 C118.712754,98.9269406 119.416097,103.438356 120.5,104.863014 Z" id="Path-5" fill="#E38E80"></path>
            <path d="M146.5,65.8630137 C146.015742,67.2876712 145.151008,68 143.905799,68 C142.660589,68 142.014856,67.2876712 141.9686,65.8630137 C140.677133,58.0273973 140.677133,51.4383562 141.9686,46.0958904 C143.260066,40.7534247 146.603866,30.7214612 152,16 C146.603866,32.6210046 144.06719,44.7305936 144.389972,52.3287671 C144.712754,59.9269406 145.416097,64.4383562 146.5,65.8630137 Z" id="Path-5" fill="#E38E80"></path>
            <path d="M303.5,84.8630137 C303.015742,86.2876712 302.151008,87 300.905799,87 C299.660589,87 299.014856,86.2876712 298.9686,84.8630137 C297.677133,77.0273973 297.677133,70.4383562 298.9686,65.0958904 C300.260066,59.7534247 303.603866,49.7214612 309,35 C303.603866,51.6210046 301.06719,63.7305936 301.389972,71.3287671 C301.712754,78.9269406 302.416097,83.4383562 303.5,84.8630137 Z" id="Path-5" fill="#E38E80"></path>
            <path d="M186.5,127.863014 C186.015742,129.287671 185.151008,130 183.905799,130 C182.660589,130 182.014856,129.287671 181.9686,127.863014 C180.677133,120.027397 180.677133,113.438356 181.9686,108.09589 C183.260066,102.753425 186.603866,92.7214612 192,78 C186.603866,94.6210046 184.06719,106.730594 184.389972,114.328767 C184.712754,121.926941 185.416097,126.438356 186.5,127.863014 Z" id="Path-5" fill="#E38E80"></path>
            <path d="M80.5,84.8630137 C80.0157423,86.2876712 79.1510085,87 77.9057985,87 C76.6605885,87 76.0148555,86.2876712 75.9685995,84.8630137 C74.6771335,77.0273973 74.6771335,70.4383562 75.9685995,65.0958904 C77.2600655,59.7534247 80.6038657,49.7214612 86,35 C80.6038657,51.6210046 78.0671897,63.7305936 78.389972,71.3287671 C78.7127544,78.9269406 79.416097,83.4383562 80.5,84.8630137 Z" id="Path-5" fill="#E38E80"></path>
            <path d="M184.5,49.8630137 C184.015742,51.2876712 183.151008,52 181.905799,52 C180.660589,52 180.014856,51.2876712 179.9686,49.8630137 C178.677133,42.0273973 178.677133,35.4383562 179.9686,30.0958904 C181.260066,24.7534247 184.603866,14.7214612 190,0 C184.603866,16.6210046 182.06719,28.7305936 182.389972,36.3287671 C182.712754,43.9269406 183.416097,48.4383562 184.5,49.8630137 Z" id="Path-5" fill="#E38E80"></path>
            <path d="M254.5,75.8630137 C254.015742,77.2876712 253.151008,78 251.905799,78 C250.660589,78 250.014856,77.2876712 249.9686,75.8630137 C248.677133,68.0273973 248.677133,61.4383562 249.9686,56.0958904 C251.260066,50.7534247 254.603866,40.7214612 260,26 C254.603866,42.6210046 252.06719,54.7305936 252.389972,62.3287671 C252.712754,69.9269406 253.416097,74.4383562 254.5,75.8630137 Z" id="Path-5" fill="#E38E80"></path>
        </g>
    </g>
</svg>