<?xml version="1.0" encoding="UTF-8"?>
<svg width="373px" height="254px" viewBox="0 0 373 254" version="1.1" xmlns="http://www.w3.org/2000/svg" xmlns:xlink="http://www.w3.org/1999/xlink">
    <!-- Generator: Sketch 51.3 (57544) - http://www.bohemiancoding.com/sketch -->
    <title>skin2</title>
    <desc>Created with Sketch.</desc>
    <defs></defs>
    <g id="skin2" stroke="none" stroke-width="1" fill="none" fill-rule="evenodd" stroke-linecap="round" stroke-linejoin="round">
        <g id="Group-2" transform="translate(116.000000, 38.000000)" stroke="#DE8B7E" stroke-width="7">
            <path d="M27.4190492,110.345474 C10.3896244,100.379925 -12.4477009,80.9227912 8.19762108,64.2719127 C21.522406,53.5251985 30.4927869,54.1508067 36.4074867,40.3527878 C42.1800797,26.8862808 37.0159639,13.453485 34.675302,0" id="Path-9"></path>
            <path d="M78.4190492,110.345474 C61.3896244,100.379925 38.5522991,80.9227912 59.1976211,64.2719127 C72.522406,53.5251985 81.4927869,54.1508067 87.4074867,40.3527878 C93.1800797,26.8862808 88.0159639,13.453485 85.675302,0" id="Path-9"></path>
            <path d="M129.419049,110.345474 C112.389624,100.379925 89.5522991,80.9227912 110.197621,64.2719127 C123.522406,53.5251985 132.492787,54.1508067 138.407487,40.3527878 C144.18008,26.8862808 139.015964,13.453485 136.675302,0" id="Path-9"></path>
        </g>
    </g>
</svg>