<?xml version="1.0" encoding="UTF-8"?>
<svg width="373px" height="254px" viewBox="0 0 373 254" version="1.1" xmlns="http://www.w3.org/2000/svg" xmlns:xlink="http://www.w3.org/1999/xlink">
    <!-- Generator: Sketch 51.3 (57544) - http://www.bohemiancoding.com/sketch -->
    <title>skin3</title>
    <desc>Created with Sketch.</desc>
    <defs></defs>
    <g id="skin3" stroke="none" stroke-width="1" fill="none" fill-rule="evenodd">
        <g id="Group" transform="translate(0.000000, 71.000000)" stroke="#DE8B7E" stroke-width="2">
            <path d="M181.599107,16.3117652 L4.43152546,89.9090963 C3.41146863,90.332839 2.92806047,91.5032697 3.35180312,92.5233266 C3.55412748,93.010373 3.94064026,93.3977898 4.4272127,93.6012514 L181.594889,167.684413 C182.078585,167.886672 182.62236,167.890913 183.109152,167.696222 L368.341633,93.6130988 C369.367218,93.2029191 369.866104,92.0390011 369.455924,91.0134152 C369.252058,90.5036813 368.847622,90.1001602 368.337428,89.8974478 L183.104853,16.300078 C182.620581,16.1076651 182.080334,16.1118583 181.599107,16.3117652 Z" id="Path-4"></path>
            <path d="M181.40085,8.15302374 L4.23326867,81.7503549 C3.21321183,82.1740976 2.72980367,83.3445283 3.15354633,84.3645852 C3.35587068,84.8516316 3.74238347,85.2390484 4.2289559,85.44251 L181.396632,159.525672 C181.880328,159.727931 182.424103,159.732171 182.910895,159.53748 L368.143376,85.4543574 C369.168962,85.0441776 369.667847,83.8802597 369.257667,82.8546738 C369.053801,82.3449399 368.649365,81.9414188 368.139172,81.7387064 L182.906596,8.14133657 C182.422324,7.94892368 181.882077,7.95311692 181.40085,8.15302374 Z" id="Path-4" opacity="0.638671875"></path>
            <path d="M181.40085,0.153023739 L4.23326867,73.7503549 C3.21321183,74.1740976 2.72980367,75.3445283 3.15354633,76.3645852 C3.35587068,76.8516316 3.74238347,77.2390484 4.2289559,77.44251 L181.396632,151.525672 C181.880328,151.727931 182.424103,151.732171 182.910895,151.53748 L368.143376,77.4543574 C369.168962,77.0441776 369.667847,75.8802597 369.257667,74.8546738 C369.053801,74.3449399 368.649365,73.9414188 368.139172,73.7387064 L182.906596,0.141336567 C182.422324,-0.0510763232 181.882077,-0.0468830784 181.40085,0.153023739 Z" id="Path-4" opacity="0.230636161"></path>
        </g>
    </g>
</svg>