<?xml version="1.0" encoding="UTF-8"?>
<svg width="400px" height="400px" viewBox="0 0 400 400" version="1.1" xmlns="http://www.w3.org/2000/svg" xmlns:xlink="http://www.w3.org/1999/xlink">
    <!-- Generator: Sketch 51.3 (57544) - http://www.bohemiancoding.com/sketch -->
    <title>symptoms5</title>
    <desc>Created with Sketch.</desc>
    <defs>
        <circle id="path-1" cx="190" cy="190" r="190"></circle>
    </defs>
    <g id="symptoms5" stroke="none" stroke-width="1" fill="none" fill-rule="evenodd">
        <g id="Group-2-+-Group-3-Mask" transform="translate(10.000000, 10.000000)">
            <mask id="mask-2" fill="white">
                <use xlink:href="#path-1"></use>
            </mask>
            <use id="Mask" fill="#DF5A44" xlink:href="#path-1"></use>
            <circle id="Oval" fill="#FFFFFF" mask="url(#mask-2)" cx="228.5" cy="132.5" r="93.5"></circle>
            <circle id="Oval" fill="#DF5A44" mask="url(#mask-2)" cx="277.5" cy="132.5" r="63.5"></circle>
            <polygon id="Path-2" fill="#FFDBD5" mask="url(#mask-2)" points="313.576923 219 305.051282 234.833333 288 234.833333 300.788462 247.012821 300.788462 262.846154 313.576923 254.320513 326.974359 262.846154 326.974359 247.012821 335.5 234.833333 322.102564 234.833333"></polygon>
            <path d="M25.5,130 C61,118.5 88.1047816,109.711428 118.959261,158.356385 C123.148358,164.960886 125.806352,172.504318 127.970501,180.019929 C129.044353,183.749177 129.044353,189.909201 127.970501,198.5 C134.942337,195.275437 139.899825,193.487824 142.842965,193.13716 C151.614143,192.092109 160.552037,191.771039 169.338623,192.677456 C213.614872,197.244961 236.141713,237.06063 234.580002,278.605508 C234.513706,280.369122 231.768266,284.759546 233.190442,283.714489 C273.676485,253.964169 275.089821,239.163383 330.814822,241.881439 C332.507863,241.96402 334.186605,242.55406 335.683504,243.349357 C341.23324,246.297913 346.883224,249.200291 351.846273,253.055377 C385.576672,279.255716 390.981014,342.611309 370.406816,378.721692 C347.393633,419.112808 289.705397,436.911514 247.723353,446.44965 C176.059689,462.731319 105.58219,461.835841 43.9700717,418.804732 C19.2185304,401.517772 -8.26310921,379.362659 -27.8638778,355.287243 C-68.6588312,305.179235 -98.1282481,291.704685 -53.5,235 C-42.0310751,220.427576 -25.4789535,192.030482 -10,180.019929 C-10,154.339976 1.83333333,137.666667 25.5,130 Z" id="Path-40" fill="#FFAFA2" mask="url(#mask-2)"></path>
            <path d="M38.2465823,143.5 C73.4931646,143.5 77.6602147,146.571554 105.214199,190.012974 C108.955189,195.910993 111.328858,202.647507 113.26151,209.359175 C114.220492,212.689507 114.220492,218.190594 113.26151,225.862438 C119.48757,222.982806 123.914757,221.386413 126.54307,221.073259 C134.375998,220.139997 142.357808,219.853272 150.204495,220.66273 C189.744526,224.74165 195.366083,239.236846 208.5,257.5 C217.255945,269.675436 221.157422,289.842103 220.204432,318 C248.225402,287.43649 278.823924,272.963837 312,274.582042 C313.511936,274.655788 315.011104,275.182712 316.34788,275.892937 C321.303962,278.526086 326.349569,281.117998 330.781722,284.560706 C360.90399,307.958402 348.137862,354.558201 329.76448,386.805866 C309.21301,422.876356 257.695669,438.771139 220.204432,447.288983 C156.20661,461.829007 93.2680695,461.029318 38.2465823,422.601235 C16.1427064,407.163456 -8.39922994,387.378269 -25.9033098,365.878194 C-62.3344385,321.130225 -87.6183801,232.39007 -47.7640032,181.751069 C-37.521906,168.737453 -32.3231742,200.738761 -18.5,190.012974 C-4.16666667,159.004325 14.7488608,143.5 38.2465823,143.5 Z" id="Path-40" fill="#FF8E75" mask="url(#mask-2)"></path>
            <path d="M-27.8566624,237.706345 C-18.5258956,230.67203 -19.5795934,230.697909 -0.752850506,227.597657 C60.8117337,217.459646 71.330483,256.949062 64.3429268,306.974349 C64.239202,307.716935 65.0336984,305.51571 65.7069907,305.185755 C67.3503384,304.380411 69.1736573,303.87947 70.9962184,303.713818 C74.6164799,303.384774 78.3914776,302.769146 81.9017706,303.713818 C86.3139065,304.90119 90.4814885,307.166284 94.1157108,309.93562 C97.0564392,312.176503 99.2750884,315.306635 101.23181,318.443621 C102.957441,321.210128 104.433085,324.249519 105.042142,327.452707 C105.928025,332.111796 105.947087,336.934408 105.647619,341.667506 C105.478467,344.340955 104.716909,346.994452 103.65024,349.451718 C102.796163,351.419237 101.575656,353.305541 99.9756182,354.733986 C95.7444004,358.511439 79.7914631,358.690994 60.3238097,357.173295 C42.3524062,355.772244 24.5880233,352.333243 6.83997496,349.180297 C-0.305125311,347.910968 -7.34159852,346.027047 -14.2856178,343.918908 C-18.1560745,342.743873 -22.893286,342.421971 -25.5287063,339.353469 C-28.5668402,335.816076 -29.4301066,330.650969 -29.680054,325.99469 C-36.2679841,203.267927 -26.1939799,285.1663 -31.3120591,245.15998 L-27.8566624,237.706345 Z" id="Path" fill="#FFAFA2" mask="url(#mask-2)"></path>
            <polygon id="Path-2" fill="#FFDBD5" mask="url(#mask-2)" points="96 43 88.2222222 57.4444444 72.6666667 57.4444444 84.3333333 68.5555556 84.3333333 83 96 75.2222222 108.222222 83 108.222222 68.5555556 116 57.4444444 103.777778 57.4444444"></polygon>
            <polygon id="Path-2" fill="#FFDBD5" mask="url(#mask-2)" points="347.666667 103 339.111111 118.888889 322 118.888889 334.833333 131.111111 334.833333 147 347.666667 138.444444 361.111111 147 361.111111 131.111111 369.666667 118.888889 356.222222 118.888889"></polygon>
        </g>
    </g>
</svg>