<?xml version="1.0" encoding="UTF-8"?>
<svg width="400px" height="400px" viewBox="0 0 400 400" version="1.1" xmlns="http://www.w3.org/2000/svg" xmlns:xlink="http://www.w3.org/1999/xlink">
    <!-- Generator: Sketch 51.3 (57544) - http://www.bohemiancoding.com/sketch -->
    <title>symptoms2</title>
    <desc>Created with Sketch.</desc>
    <defs>
        <circle id="path-1" cx="190" cy="190" r="190"></circle>
        <path d="M112.197854,64.5405205 L118.167964,44.1878718 C119.7225,38.8883187 125.278837,35.8523821 130.57839,37.4069177 C130.597989,37.4126667 130.61757,37.4184757 130.637133,37.4243447 L173.172186,50.1848606 C178.462115,51.7718392 181.463949,57.3466738 179.87697,62.6366023 C179.804863,62.8769595 179.723734,63.1145173 179.633756,63.3487713 L172.769738,81.2188868 C205.300574,101.176811 227,137.070921 227,178.033205 C227,240.717524 176.184319,291.533205 113.5,291.533205 C50.8156809,291.533205 0,240.717524 0,178.033205 C0,115.783512 50.1134556,65.2384435 112.197846,64.5405206 Z" id="path-3"></path>
    </defs>
    <g id="symptoms2" stroke="none" stroke-width="1" fill="none" fill-rule="evenodd">
        <g id="Group-2-+-Group-3-Mask" transform="translate(10.000000, 10.000000)">
            <mask id="mask-2" fill="white">
                <use xlink:href="#path-1"></use>
            </mask>
            <use id="Mask" fill="#FFDBD5" xlink:href="#path-1"></use>
            <polygon id="Path-2" fill="#FFFFFF" mask="url(#mask-2)" points="256.5 104 256.5 26.5 230.5 97 208 19 208 109.5 129.5 50.5 184 126.5 82.5 104 174.5 150 69 198 191 182 191 310.5 225 198 256.5 292.5 256.5 190.5 328.5 262.5 282 182 350 182 291.5 150 343 119 273.5 126.5 305.5 76.5"></polygon>
            <polygon id="Path-28" fill="#DF5A44" mask="url(#mask-2)" points="214.659574 142.62766 222.12766 114 232.085106 142.62766 260.297872 128.31383 249.095745 150.095745 271.5 171.255319 243.079787 171.255319 243.079787 193.244681 226.691489 175.819149 206.776596 193.244681 206.776596 162.957447 174 171.255319 198.478723 150.095745 182.712766 128.31383"></polygon>
            <g id="Path-25" mask="url(#mask-2)">
                <g transform="translate(0.000000, 158.000000)">
                    <path d="M145,74.6072426 C145,33.5489533 179.5,-8.13287307 227.5,1.36712693" id="Path-17" stroke="#FFAFA2" stroke-width="14" fill="none" stroke-linecap="round"></path>
                    <mask id="mask-4" fill="white">
                        <use xlink:href="#path-3"></use>
                    </mask>
                    <use id="Mask" stroke="none" fill="#DF5A44" fill-rule="evenodd" xlink:href="#path-3"></use>
                    <path d="M134.298065,76.8230219 L139.177709,60.1878718 C140.732244,54.8883187 146.288581,51.8523821 151.588134,53.4069177 C151.607733,53.4126667 151.627314,53.4184757 151.646877,53.4243447 L186.43903,63.8619905 C191.728959,65.448969 194.730793,71.0238037 193.143814,76.3137322 C193.071707,76.5540893 192.990578,76.7916471 192.9006,77.0259011 L187.365916,91.4351653 C215.866623,108.920574 234.877785,140.367892 234.877785,176.255505 C234.877785,231.174089 190.357476,275.694398 135.438893,275.694398 C80.5203087,275.694398 36,231.174089 36,176.255505 C36,121.717703 79.9050795,77.4344818 134.298058,76.823022 Z" id="Mask" stroke="none" fill="#FF8E75" fill-rule="evenodd" mask="url(#mask-4)"></path>
                </g>
            </g>
        </g>
        <polygon id="Path-26" fill="#FFFFFF" points="288 280.5 296.5 330 320.5 305.25"></polygon>
        <polygon id="Path-27" fill="#FFFFFF" points="61 136 107.5 151.5 54.5 164"></polygon>
    </g>
</svg>